<?xml version="1.0" encoding="UTF-8" standalone="no"?>
<!DOCTYPE svg PUBLIC "-//W3C//DTD SVG 1.1//EN" "http://www.w3.org/Graphics/SVG/1.1/DTD/svg11.dtd">
<svg width="100%" height="100%" viewBox="0 0 1200 1200" version="1.1" xmlns="http://www.w3.org/2000/svg" xmlns:xlink="http://www.w3.org/1999/xlink" xml:space="preserve" style="fill-rule:evenodd;clip-rule:evenodd;stroke-linejoin:round;stroke-miterlimit:1.41421;">
    <g id="Layer-2" transform="matrix(4.16667,0,0,4.16667,0,0)">
        <g transform="matrix(1.10059,-3.94937e-17,6.58228e-18,1.10059,-13.5795,-13.0239)">
            <g transform="matrix(0.0462512,-0.213104,0.213104,0.0462512,-56.7005,116.541)">
                <path d="M64.587,447.244L69.212,420.119L96.212,420.119L98.712,405.994L71.712,405.994L74.837,388.369L105.712,388.369L108.212,373.619L60.212,373.619L47.337,447.244L64.587,447.244Z" style="fill-rule:nonzero;"/>
            </g>
            <g transform="matrix(0.0730501,-0.205466,0.205466,0.0730501,-40.467,98.1583)">
                <path d="M96.932,363.922C95.682,371.297 92.182,376.797 85.682,376.797C79.932,376.797 77.307,371.422 77.307,364.797C77.307,352.922 82.432,341.547 91.932,341.547C98.432,341.547 99.932,347.797 98.807,354.297L96.932,363.922ZM119.932,330.172L104.807,330.172L101.307,339.797C100.557,332.047 95.307,328.797 87.057,328.797C69.932,328.797 59.682,346.047 59.682,365.797C59.682,380.297 66.432,389.422 78.807,389.422C86.057,389.422 92.432,386.297 95.182,378.172C95.932,385.547 100.182,388.547 108.432,388.547C111.432,388.547 114.682,387.922 117.557,387.047L120.182,374.422C118.682,374.797 117.557,374.922 116.557,374.922C112.807,374.922 112.557,372.547 113.057,369.797L119.932,330.172Z" style="fill-rule:nonzero;"/>
            </g>
            <g transform="matrix(0.0995952,-0.193993,0.193993,0.0995952,-21.876,84.085)">
                <path d="M80.215,307.338C81.34,318.838 90.34,323.588 103.09,323.588C117.59,323.588 128.215,318.213 128.215,305.088C128.215,295.088 124.34,290.338 113.215,286.588C105.34,283.838 103.715,282.588 103.715,279.588C103.715,276.338 106.465,274.338 110.465,274.338C116.09,274.338 118.965,277.338 118.965,282.338L133.215,279.088C133.215,268.963 125.965,262.963 111.59,262.963C98.34,262.963 87.715,268.713 87.715,282.088C87.715,291.088 92.465,296.588 102.84,299.463C109.59,301.338 111.34,303.338 111.34,306.838C111.34,310.838 108.215,312.213 103.965,312.213C98.465,312.213 94.59,308.838 94.09,302.338L80.215,307.338Z" style="fill-rule:nonzero;"/>
            </g>
            <g transform="matrix(0.123766,-0.17954,0.17954,0.123766,-8.21523,74.9438)">
                <path d="M165.767,234.396C166.017,232.521 166.142,231.146 166.142,229.271C166.142,220.396 160.392,214.771 151.267,214.771C141.892,214.771 136.767,219.396 133.017,227.896L139.642,190.396L122.517,190.396L107.892,273.896L124.892,273.896L130.267,243.021C132.142,232.771 137.017,228.646 141.892,228.646C147.892,228.646 149.017,232.896 148.142,238.521L144.642,258.521C142.892,268.896 146.892,274.521 157.642,274.521C160.517,274.521 163.892,273.896 166.767,273.021L169.392,260.396C167.892,260.771 166.767,260.896 165.642,260.896C161.892,260.896 161.767,258.521 162.267,255.771L165.767,234.396Z" style="fill-rule:nonzero;"/>
            </g>
            <g transform="matrix(0.143417,-0.164269,0.164269,0.143417,6.32023,70.3572)">
                <path d="M174.079,159.071L157.079,159.071L149.579,201.446C147.829,211.821 151.829,217.446 162.579,217.446C165.454,217.446 168.829,216.821 171.704,215.946L174.329,203.321C172.829,203.696 171.704,203.821 170.579,203.821C166.829,203.821 166.704,201.446 167.204,198.696L174.079,159.071ZM157.829,141.446C157.829,147.571 162.454,150.946 167.954,150.946C173.954,150.946 178.454,147.571 178.454,141.446C178.454,135.071 173.954,131.696 167.954,131.696C162.454,131.696 157.829,135.071 157.829,141.446Z" style="fill-rule:nonzero;"/>
            </g>
            <g transform="matrix(0.15938,-0.148831,0.148831,0.15938,12.7551,66.4407)">
                <path d="M203.25,130.409C181.5,130.409 171,147.409 171,166.534C171,182.784 182.125,191.034 197,191.034C218.375,191.034 229,174.409 229,155.909C229,139.659 219.125,130.409 203.25,130.409ZM202,143.784C207.75,143.784 211.125,147.909 211.125,155.659C211.125,168.409 206.25,178.159 197.875,178.159C192.375,178.159 189,174.159 189,166.159C189,153.659 193.875,143.784 202,143.784Z" style="fill-rule:nonzero;"/>
            </g>
            <g transform="matrix(0.178797,-0.124836,0.124836,0.178797,21.6125,63.0095)">
                <path d="M277.216,104.742C277.466,102.867 277.591,101.492 277.591,99.617C277.591,90.742 271.841,85.117 262.716,85.117C253.341,85.117 248.091,89.742 244.341,98.242L244.341,86.492L229.466,86.492L219.341,144.242L236.341,144.242L241.716,113.367C243.591,103.117 248.466,98.992 253.341,98.992C259.341,98.992 260.466,103.242 259.591,108.867L256.091,128.867C254.341,139.242 258.341,144.867 269.091,144.867C271.966,144.867 275.341,144.242 278.216,143.367L280.841,130.742C279.341,131.117 278.216,131.242 277.091,131.242C273.341,131.242 273.216,128.867 273.716,126.117L277.216,104.742Z" style="fill-rule:nonzero;"/>
            </g>
            <g transform="matrix(0.192888,-0.101719,0.101719,0.192888,27.4361,60.9396)">
                <path d="M263.149,129.779L277.399,129.779L330.899,20.904L316.274,20.904L263.149,129.779Z" style="fill-rule:nonzero;"/>
            </g>
            <g transform="matrix(0.205012,-0.0743137,0.0743137,0.205012,29.3628,55.1602)">
                <path d="M352.889,80.128L363.139,21.253L383.639,21.253L386.139,6.503L328.639,6.503L326.014,21.253L346.139,21.253L335.764,80.128L352.889,80.128Z" style="fill-rule:nonzero;"/>
            </g>
            <g transform="matrix(0.21184,-0.0517333,0.0517333,0.21184,30.3787,50.0856)">
                <path d="M402.717,48.563C395.717,48.563 392.342,42.063 393.717,33.938L428.467,33.938C430.217,30.688 430.967,26.188 430.967,21.688C430.967,10.938 423.717,0.813 407.342,0.813C391.092,0.813 376.092,13.438 376.092,36.438C376.092,51.688 385.342,61.438 401.342,61.438C416.592,61.438 424.717,56.313 428.217,44.563L412.342,40.813C410.842,46.438 407.842,48.563 402.717,48.563ZM395.592,24.688C397.092,18.563 400.717,13.188 406.592,13.188C412.092,13.188 413.967,17.063 413.967,21.688C413.967,22.813 413.842,23.813 413.717,24.688L395.592,24.688Z" style="fill-rule:nonzero;"/>
            </g>
            <g transform="matrix(0.216761,-0.0238142,0.0238142,0.216761,30.6493,40.8107)">
                <path d="M471.92,24.734C470.545,30.734 467.545,33.859 462.795,33.859C457.42,33.859 454.045,30.109 454.045,21.359C454.045,9.609 459.045,-0.516 466.92,-0.516C472.67,-0.516 474.295,5.359 474.045,10.234L490.67,7.359C490.67,-4.266 484.045,-13.891 468.545,-13.891C446.42,-13.891 436.045,3.484 436.045,22.234C436.045,37.859 446.17,46.734 461.545,46.734C476.295,46.734 484.795,39.609 488.42,27.359L471.92,24.734Z" style="fill-rule:nonzero;"/>
            </g>
            <g transform="matrix(0.218008,0.0050226,-0.0050226,0.218008,31.3838,27.9948)">
                <path d="M553.713,-1.214C553.963,-3.089 554.088,-4.464 554.088,-6.339C554.088,-15.214 548.338,-20.839 539.213,-20.839C529.838,-20.839 524.713,-16.214 520.963,-7.714L527.588,-45.214L510.463,-45.214L495.838,38.286L512.838,38.286L518.213,7.411C520.088,-2.839 524.963,-6.964 529.838,-6.964C535.838,-6.964 536.963,-2.714 536.088,2.911L532.588,22.911C530.838,33.286 534.838,38.911 545.588,38.911C548.463,38.911 551.838,38.286 554.713,37.411L557.338,24.786C555.838,25.161 554.713,25.286 553.588,25.286C549.838,25.286 549.713,22.911 550.213,20.161L553.713,-1.214Z" style="fill-rule:nonzero;"/>
            </g>
            <g transform="matrix(0.211616,0.0526427,-0.0526427,0.211616,37.2255,-0.309789)">
                <path d="M611.064,42.9L616.314,12.9L644.314,12.9L639.064,42.9L656.314,42.9L669.189,-30.725L651.939,-30.725L646.939,-1.85L618.814,-1.85L623.939,-30.725L606.689,-30.725L593.814,42.9L611.064,42.9Z" style="fill-rule:nonzero;"/>
            </g>
            <g transform="matrix(0.200918,0.0847625,-0.0847625,0.200918,47.9441,-25.0982)">
                <path d="M709.445,38.798C708.195,46.173 704.695,51.673 698.195,51.673C692.445,51.673 689.82,46.298 689.82,39.673C689.82,27.798 694.945,16.423 704.445,16.423C710.945,16.423 712.445,22.673 711.32,29.173L709.445,38.798ZM732.445,5.048L717.32,5.048L713.82,14.673C713.07,6.923 707.82,3.673 699.57,3.673C682.445,3.673 672.195,20.923 672.195,40.673C672.195,55.173 678.945,64.298 691.32,64.298C698.57,64.298 704.945,61.173 707.695,53.048C708.445,60.423 712.695,63.423 720.945,63.423C723.945,63.423 727.195,62.798 730.07,61.923L732.695,49.298C731.195,49.673 730.07,49.798 729.07,49.798C725.32,49.798 725.07,47.423 725.57,44.673L732.445,5.048Z" style="fill-rule:nonzero;"/>
            </g>
            <g transform="matrix(0.186987,0.112198,-0.112198,0.186987,64.064,-48.9257)">
                <path d="M772.47,69.816C771.095,75.816 768.095,78.941 763.345,78.941C757.97,78.941 754.595,75.191 754.595,66.441C754.595,54.691 759.595,44.566 767.47,44.566C773.22,44.566 774.845,50.441 774.595,55.316L791.22,52.441C791.22,40.816 784.595,31.191 769.095,31.191C746.97,31.191 736.595,48.566 736.595,67.316C736.595,82.941 746.72,91.816 762.095,91.816C776.845,91.816 785.345,84.691 788.97,72.441L772.47,69.816Z" style="fill-rule:nonzero;"/>
            </g>
            <g transform="matrix(0.169956,0.13663,-0.13663,0.169956,85.423,-70.9119)">
                <path d="M821.282,112.757C824.282,119.632 828.907,121.507 834.532,121.507C838.407,121.507 840.907,121.007 843.407,120.257L846.032,107.132C840.782,108.632 838.032,108.382 835.782,104.007L828.407,89.757L853.532,63.132L833.032,63.132L815.032,83.257L812.157,83.257L820.282,37.382L803.157,37.382L788.532,120.882L805.532,120.882L809.907,96.007L813.657,96.007L821.282,112.757Z" style="fill-rule:nonzero;"/>
            </g>
            <g transform="matrix(0.150719,0.157596,-0.157596,0.150719,112.849,-90.3329)">
                <path d="M876.679,137.318C875.429,144.693 871.929,150.193 865.429,150.193C859.679,150.193 857.054,144.818 857.054,138.193C857.054,126.318 862.179,114.943 871.679,114.943C878.179,114.943 879.679,121.193 878.554,127.693L876.679,137.318ZM899.679,103.568L884.554,103.568L881.054,113.193C880.304,105.443 875.054,102.193 866.804,102.193C849.679,102.193 839.429,119.443 839.429,139.193C839.429,153.693 846.179,162.818 858.554,162.818C865.804,162.818 872.179,159.693 874.929,151.568C875.679,158.943 879.929,161.943 888.179,161.943C891.179,161.943 894.429,161.318 897.304,160.443L899.929,147.818C898.429,148.193 897.304,148.318 896.304,148.318C892.554,148.318 892.304,145.943 892.804,143.193L899.679,103.568Z" style="fill-rule:nonzero;"/>
            </g>
            <g transform="matrix(0.129869,0.175176,-0.175176,0.129869,146.267,-105.534)">
                <path d="M921.644,196.246C918.644,197.996 915.019,199.121 911.894,199.121C908.394,199.121 906.269,197.496 907.144,192.496L911.644,167.496L926.644,167.496L928.894,154.621L913.894,154.621L916.269,140.371L899.019,142.371L896.894,154.621L888.519,154.621L886.269,167.496L894.519,167.496L890.019,192.621C887.394,207.621 893.894,213.871 906.269,213.871C912.019,213.871 918.019,212.496 921.644,210.371L921.644,196.246Z" style="fill-rule:nonzero;"/>
            </g>
            <g transform="matrix(0.108725,0.189027,-0.189027,0.108725,177.631,-114.57)">
                <path d="M972.612,208.548C972.862,206.673 972.987,205.298 972.987,203.423C972.987,194.548 967.237,188.923 958.112,188.923C948.737,188.923 943.612,193.548 939.862,202.048L946.487,164.548L929.362,164.548L914.737,248.048L931.737,248.048L937.112,217.173C938.987,206.923 943.862,202.798 948.737,202.798C954.737,202.798 955.862,207.048 954.987,212.673L951.487,232.673C949.737,243.048 953.737,248.673 964.487,248.673C967.362,248.673 970.737,248.048 973.612,247.173L976.237,234.548C974.737,234.923 973.612,235.048 972.487,235.048C968.737,235.048 968.612,232.673 969.112,229.923L972.612,208.548Z" style="fill-rule:nonzero;"/>
            </g>
            <g transform="matrix(0.0804307,0.202691,-0.202691,0.0804307,223.941,-118.672)">
                <path d="M981.845,249.872C960.095,249.872 949.595,266.872 949.595,285.997C949.595,302.247 960.72,310.497 975.595,310.497C996.97,310.497 1007.6,293.872 1007.6,275.372C1007.6,259.122 997.72,249.872 981.845,249.872ZM980.595,263.247C986.345,263.247 989.72,267.372 989.72,275.122C989.72,287.872 984.845,297.622 976.47,297.622C970.97,297.622 967.595,293.622 967.595,285.622C967.595,273.122 972.47,263.247 980.595,263.247Z" style="fill-rule:nonzero;"/>
            </g>
            <g transform="matrix(0.0505749,0.21212,-0.21212,0.0505749,272.222,-113.27)">
                <path d="M1031.98,330.935C1032.23,329.06 1032.35,327.685 1032.35,325.81C1032.35,316.935 1026.6,311.31 1017.48,311.31C1008.1,311.31 1002.85,315.935 999.101,324.435L999.101,312.685L984.226,312.685L974.101,370.435L991.101,370.435L996.476,339.56C998.351,329.31 1003.23,325.185 1008.1,325.185C1014.1,325.185 1015.23,329.435 1014.35,335.06L1010.85,355.06C1009.1,365.435 1013.1,371.06 1023.85,371.06C1026.73,371.06 1030.1,370.435 1032.98,369.56L1035.6,356.935C1034.1,357.31 1032.98,357.435 1031.85,357.435C1028.1,357.435 1027.98,355.06 1028.48,352.31L1031.98,330.935Z" style="fill-rule:nonzero;"/>
            </g>
        </g>
        <g transform="matrix(-1.10059,1.74277e-16,-1.41365e-16,-1.10059,302.439,301.024)">
            <g transform="matrix(0.0462512,-0.213104,0.213104,0.0462512,-56.7005,116.541)">
                <path d="M64.587,447.244L69.212,420.119L96.212,420.119L98.712,405.994L71.712,405.994L74.837,388.369L105.712,388.369L108.212,373.619L60.212,373.619L47.337,447.244L64.587,447.244Z" style="fill-rule:nonzero;"/>
            </g>
            <g transform="matrix(0.0730501,-0.205466,0.205466,0.0730501,-40.467,98.1583)">
                <path d="M96.932,363.922C95.682,371.297 92.182,376.797 85.682,376.797C79.932,376.797 77.307,371.422 77.307,364.797C77.307,352.922 82.432,341.547 91.932,341.547C98.432,341.547 99.932,347.797 98.807,354.297L96.932,363.922ZM119.932,330.172L104.807,330.172L101.307,339.797C100.557,332.047 95.307,328.797 87.057,328.797C69.932,328.797 59.682,346.047 59.682,365.797C59.682,380.297 66.432,389.422 78.807,389.422C86.057,389.422 92.432,386.297 95.182,378.172C95.932,385.547 100.182,388.547 108.432,388.547C111.432,388.547 114.682,387.922 117.557,387.047L120.182,374.422C118.682,374.797 117.557,374.922 116.557,374.922C112.807,374.922 112.557,372.547 113.057,369.797L119.932,330.172Z" style="fill-rule:nonzero;"/>
            </g>
            <g transform="matrix(0.0995952,-0.193993,0.193993,0.0995952,-21.876,84.085)">
                <path d="M80.215,307.338C81.34,318.838 90.34,323.588 103.09,323.588C117.59,323.588 128.215,318.213 128.215,305.088C128.215,295.088 124.34,290.338 113.215,286.588C105.34,283.838 103.715,282.588 103.715,279.588C103.715,276.338 106.465,274.338 110.465,274.338C116.09,274.338 118.965,277.338 118.965,282.338L133.215,279.088C133.215,268.963 125.965,262.963 111.59,262.963C98.34,262.963 87.715,268.713 87.715,282.088C87.715,291.088 92.465,296.588 102.84,299.463C109.59,301.338 111.34,303.338 111.34,306.838C111.34,310.838 108.215,312.213 103.965,312.213C98.465,312.213 94.59,308.838 94.09,302.338L80.215,307.338Z" style="fill-rule:nonzero;"/>
            </g>
            <g transform="matrix(0.123766,-0.17954,0.17954,0.123766,-8.21523,74.9438)">
                <path d="M165.767,234.396C166.017,232.521 166.142,231.146 166.142,229.271C166.142,220.396 160.392,214.771 151.267,214.771C141.892,214.771 136.767,219.396 133.017,227.896L139.642,190.396L122.517,190.396L107.892,273.896L124.892,273.896L130.267,243.021C132.142,232.771 137.017,228.646 141.892,228.646C147.892,228.646 149.017,232.896 148.142,238.521L144.642,258.521C142.892,268.896 146.892,274.521 157.642,274.521C160.517,274.521 163.892,273.896 166.767,273.021L169.392,260.396C167.892,260.771 166.767,260.896 165.642,260.896C161.892,260.896 161.767,258.521 162.267,255.771L165.767,234.396Z" style="fill-rule:nonzero;"/>
            </g>
            <g transform="matrix(0.143417,-0.164269,0.164269,0.143417,6.32023,70.3572)">
                <path d="M174.079,159.071L157.079,159.071L149.579,201.446C147.829,211.821 151.829,217.446 162.579,217.446C165.454,217.446 168.829,216.821 171.704,215.946L174.329,203.321C172.829,203.696 171.704,203.821 170.579,203.821C166.829,203.821 166.704,201.446 167.204,198.696L174.079,159.071ZM157.829,141.446C157.829,147.571 162.454,150.946 167.954,150.946C173.954,150.946 178.454,147.571 178.454,141.446C178.454,135.071 173.954,131.696 167.954,131.696C162.454,131.696 157.829,135.071 157.829,141.446Z" style="fill-rule:nonzero;"/>
            </g>
            <g transform="matrix(0.15938,-0.148831,0.148831,0.15938,12.7551,66.4407)">
                <path d="M203.25,130.409C181.5,130.409 171,147.409 171,166.534C171,182.784 182.125,191.034 197,191.034C218.375,191.034 229,174.409 229,155.909C229,139.659 219.125,130.409 203.25,130.409ZM202,143.784C207.75,143.784 211.125,147.909 211.125,155.659C211.125,168.409 206.25,178.159 197.875,178.159C192.375,178.159 189,174.159 189,166.159C189,153.659 193.875,143.784 202,143.784Z" style="fill-rule:nonzero;"/>
            </g>
            <g transform="matrix(0.178797,-0.124836,0.124836,0.178797,21.6125,63.0095)">
                <path d="M277.216,104.742C277.466,102.867 277.591,101.492 277.591,99.617C277.591,90.742 271.841,85.117 262.716,85.117C253.341,85.117 248.091,89.742 244.341,98.242L244.341,86.492L229.466,86.492L219.341,144.242L236.341,144.242L241.716,113.367C243.591,103.117 248.466,98.992 253.341,98.992C259.341,98.992 260.466,103.242 259.591,108.867L256.091,128.867C254.341,139.242 258.341,144.867 269.091,144.867C271.966,144.867 275.341,144.242 278.216,143.367L280.841,130.742C279.341,131.117 278.216,131.242 277.091,131.242C273.341,131.242 273.216,128.867 273.716,126.117L277.216,104.742Z" style="fill-rule:nonzero;"/>
            </g>
            <g transform="matrix(0.192888,-0.101719,0.101719,0.192888,27.4361,60.9396)">
                <path d="M263.149,129.779L277.399,129.779L330.899,20.904L316.274,20.904L263.149,129.779Z" style="fill-rule:nonzero;"/>
            </g>
            <g transform="matrix(0.205012,-0.0743137,0.0743137,0.205012,29.3628,55.1602)">
                <path d="M352.889,80.128L363.139,21.253L383.639,21.253L386.139,6.503L328.639,6.503L326.014,21.253L346.139,21.253L335.764,80.128L352.889,80.128Z" style="fill-rule:nonzero;"/>
            </g>
            <g transform="matrix(0.21184,-0.0517333,0.0517333,0.21184,30.3787,50.0856)">
                <path d="M402.717,48.563C395.717,48.563 392.342,42.063 393.717,33.938L428.467,33.938C430.217,30.688 430.967,26.188 430.967,21.688C430.967,10.938 423.717,0.813 407.342,0.813C391.092,0.813 376.092,13.438 376.092,36.438C376.092,51.688 385.342,61.438 401.342,61.438C416.592,61.438 424.717,56.313 428.217,44.563L412.342,40.813C410.842,46.438 407.842,48.563 402.717,48.563ZM395.592,24.688C397.092,18.563 400.717,13.188 406.592,13.188C412.092,13.188 413.967,17.063 413.967,21.688C413.967,22.813 413.842,23.813 413.717,24.688L395.592,24.688Z" style="fill-rule:nonzero;"/>
            </g>
            <g transform="matrix(0.216761,-0.0238142,0.0238142,0.216761,30.6493,40.8107)">
                <path d="M471.92,24.734C470.545,30.734 467.545,33.859 462.795,33.859C457.42,33.859 454.045,30.109 454.045,21.359C454.045,9.609 459.045,-0.516 466.92,-0.516C472.67,-0.516 474.295,5.359 474.045,10.234L490.67,7.359C490.67,-4.266 484.045,-13.891 468.545,-13.891C446.42,-13.891 436.045,3.484 436.045,22.234C436.045,37.859 446.17,46.734 461.545,46.734C476.295,46.734 484.795,39.609 488.42,27.359L471.92,24.734Z" style="fill-rule:nonzero;"/>
            </g>
            <g transform="matrix(0.218008,0.0050226,-0.0050226,0.218008,31.3838,27.9948)">
                <path d="M553.713,-1.214C553.963,-3.089 554.088,-4.464 554.088,-6.339C554.088,-15.214 548.338,-20.839 539.213,-20.839C529.838,-20.839 524.713,-16.214 520.963,-7.714L527.588,-45.214L510.463,-45.214L495.838,38.286L512.838,38.286L518.213,7.411C520.088,-2.839 524.963,-6.964 529.838,-6.964C535.838,-6.964 536.963,-2.714 536.088,2.911L532.588,22.911C530.838,33.286 534.838,38.911 545.588,38.911C548.463,38.911 551.838,38.286 554.713,37.411L557.338,24.786C555.838,25.161 554.713,25.286 553.588,25.286C549.838,25.286 549.713,22.911 550.213,20.161L553.713,-1.214Z" style="fill-rule:nonzero;"/>
            </g>
            <g transform="matrix(0.211616,0.0526427,-0.0526427,0.211616,37.2255,-0.309789)">
                <path d="M611.064,42.9L616.314,12.9L644.314,12.9L639.064,42.9L656.314,42.9L669.189,-30.725L651.939,-30.725L646.939,-1.85L618.814,-1.85L623.939,-30.725L606.689,-30.725L593.814,42.9L611.064,42.9Z" style="fill-rule:nonzero;"/>
            </g>
            <g transform="matrix(0.200918,0.0847625,-0.0847625,0.200918,47.9441,-25.0982)">
                <path d="M709.445,38.798C708.195,46.173 704.695,51.673 698.195,51.673C692.445,51.673 689.82,46.298 689.82,39.673C689.82,27.798 694.945,16.423 704.445,16.423C710.945,16.423 712.445,22.673 711.32,29.173L709.445,38.798ZM732.445,5.048L717.32,5.048L713.82,14.673C713.07,6.923 707.82,3.673 699.57,3.673C682.445,3.673 672.195,20.923 672.195,40.673C672.195,55.173 678.945,64.298 691.32,64.298C698.57,64.298 704.945,61.173 707.695,53.048C708.445,60.423 712.695,63.423 720.945,63.423C723.945,63.423 727.195,62.798 730.07,61.923L732.695,49.298C731.195,49.673 730.07,49.798 729.07,49.798C725.32,49.798 725.07,47.423 725.57,44.673L732.445,5.048Z" style="fill-rule:nonzero;"/>
            </g>
            <g transform="matrix(0.186987,0.112198,-0.112198,0.186987,64.064,-48.9257)">
                <path d="M772.47,69.816C771.095,75.816 768.095,78.941 763.345,78.941C757.97,78.941 754.595,75.191 754.595,66.441C754.595,54.691 759.595,44.566 767.47,44.566C773.22,44.566 774.845,50.441 774.595,55.316L791.22,52.441C791.22,40.816 784.595,31.191 769.095,31.191C746.97,31.191 736.595,48.566 736.595,67.316C736.595,82.941 746.72,91.816 762.095,91.816C776.845,91.816 785.345,84.691 788.97,72.441L772.47,69.816Z" style="fill-rule:nonzero;"/>
            </g>
            <g transform="matrix(0.169956,0.13663,-0.13663,0.169956,85.423,-70.9119)">
                <path d="M821.282,112.757C824.282,119.632 828.907,121.507 834.532,121.507C838.407,121.507 840.907,121.007 843.407,120.257L846.032,107.132C840.782,108.632 838.032,108.382 835.782,104.007L828.407,89.757L853.532,63.132L833.032,63.132L815.032,83.257L812.157,83.257L820.282,37.382L803.157,37.382L788.532,120.882L805.532,120.882L809.907,96.007L813.657,96.007L821.282,112.757Z" style="fill-rule:nonzero;"/>
            </g>
            <g transform="matrix(0.150719,0.157596,-0.157596,0.150719,112.849,-90.3329)">
                <path d="M876.679,137.318C875.429,144.693 871.929,150.193 865.429,150.193C859.679,150.193 857.054,144.818 857.054,138.193C857.054,126.318 862.179,114.943 871.679,114.943C878.179,114.943 879.679,121.193 878.554,127.693L876.679,137.318ZM899.679,103.568L884.554,103.568L881.054,113.193C880.304,105.443 875.054,102.193 866.804,102.193C849.679,102.193 839.429,119.443 839.429,139.193C839.429,153.693 846.179,162.818 858.554,162.818C865.804,162.818 872.179,159.693 874.929,151.568C875.679,158.943 879.929,161.943 888.179,161.943C891.179,161.943 894.429,161.318 897.304,160.443L899.929,147.818C898.429,148.193 897.304,148.318 896.304,148.318C892.554,148.318 892.304,145.943 892.804,143.193L899.679,103.568Z" style="fill-rule:nonzero;"/>
            </g>
            <g transform="matrix(0.129869,0.175176,-0.175176,0.129869,146.267,-105.534)">
                <path d="M921.644,196.246C918.644,197.996 915.019,199.121 911.894,199.121C908.394,199.121 906.269,197.496 907.144,192.496L911.644,167.496L926.644,167.496L928.894,154.621L913.894,154.621L916.269,140.371L899.019,142.371L896.894,154.621L888.519,154.621L886.269,167.496L894.519,167.496L890.019,192.621C887.394,207.621 893.894,213.871 906.269,213.871C912.019,213.871 918.019,212.496 921.644,210.371L921.644,196.246Z" style="fill-rule:nonzero;"/>
            </g>
            <g transform="matrix(0.108725,0.189027,-0.189027,0.108725,177.631,-114.57)">
                <path d="M972.612,208.548C972.862,206.673 972.987,205.298 972.987,203.423C972.987,194.548 967.237,188.923 958.112,188.923C948.737,188.923 943.612,193.548 939.862,202.048L946.487,164.548L929.362,164.548L914.737,248.048L931.737,248.048L937.112,217.173C938.987,206.923 943.862,202.798 948.737,202.798C954.737,202.798 955.862,207.048 954.987,212.673L951.487,232.673C949.737,243.048 953.737,248.673 964.487,248.673C967.362,248.673 970.737,248.048 973.612,247.173L976.237,234.548C974.737,234.923 973.612,235.048 972.487,235.048C968.737,235.048 968.612,232.673 969.112,229.923L972.612,208.548Z" style="fill-rule:nonzero;"/>
            </g>
            <g transform="matrix(0.0804307,0.202691,-0.202691,0.0804307,223.941,-118.672)">
                <path d="M981.845,249.872C960.095,249.872 949.595,266.872 949.595,285.997C949.595,302.247 960.72,310.497 975.595,310.497C996.97,310.497 1007.6,293.872 1007.6,275.372C1007.6,259.122 997.72,249.872 981.845,249.872ZM980.595,263.247C986.345,263.247 989.72,267.372 989.72,275.122C989.72,287.872 984.845,297.622 976.47,297.622C970.97,297.622 967.595,293.622 967.595,285.622C967.595,273.122 972.47,263.247 980.595,263.247Z" style="fill-rule:nonzero;"/>
            </g>
            <g transform="matrix(0.0505749,0.21212,-0.21212,0.0505749,272.222,-113.27)">
                <path d="M1031.98,330.935C1032.23,329.06 1032.35,327.685 1032.35,325.81C1032.35,316.935 1026.6,311.31 1017.48,311.31C1008.1,311.31 1002.85,315.935 999.101,324.435L999.101,312.685L984.226,312.685L974.101,370.435L991.101,370.435L996.476,339.56C998.351,329.31 1003.23,325.185 1008.1,325.185C1014.1,325.185 1015.23,329.435 1014.35,335.06L1010.85,355.06C1009.1,365.435 1013.1,371.06 1023.85,371.06C1026.73,371.06 1030.1,370.435 1032.98,369.56L1035.6,356.935C1034.1,357.31 1032.98,357.435 1031.85,357.435C1028.1,357.435 1027.98,355.06 1028.48,352.31L1031.98,330.935Z" style="fill-rule:nonzero;"/>
            </g>
        </g>
        <g transform="matrix(1,0,0,1,0.429797,1.09139e-13)">
            <g transform="matrix(1.23237,0,0,1.23237,22.5103,24.5581)">
                <path d="M132.485,140.336L152.668,140.336L152.668,120.152L132.485,120.152L132.485,140.336ZM153.351,143.387L131.801,143.387C130.496,143.387 129.433,142.325 129.433,141.02L129.433,119.471C129.433,118.164 130.496,117.102 131.801,117.102L153.351,117.102C154.658,117.102 155.719,118.164 155.719,119.471L155.719,141.02C155.719,142.325 154.658,143.387 153.351,143.387" style="fill:rgb(34,30,31);fill-rule:nonzero;"/>
            </g>
            <g transform="matrix(0.920089,0,0,0.920089,15.5976,14.958)">
                <g transform="matrix(0.0147969,0,0,0.0126538,183.085,171.999)">
                    <path d="M1117,1650C997,1604 942,1526 920,1374C900,1227 941,1100 1032,1034C1043.61,1025.07 1054.73,1015.52 1065.75,1005.88C1069.46,1002.62 1072.97,999.102 1076.16,995.328C1077.75,993.442 1079.9,991.466 1080,989C1080.1,986.568 1078.08,984.487 1076.67,982.5C1073.93,978.624 1070.9,974.934 1067.62,971.5C1058,961.421 1048.29,951.397 1038,942C1015.4,921.831 995.617,898.57 981.592,871.582C954.539,819.527 949.295,757.69 950,700C950.98,619.816 961.233,535.465 1012.06,470.244C1025.12,453.485 1040.41,438.564 1057.23,425.607C1075.42,411.598 1095.31,399.901 1116,390C1159,369 1178,366 1280,367C1382,367 1401,370 1445,393C1465.2,403.192 1484.53,415.215 1502.19,429.393C1553.45,470.549 1588.55,531.177 1600.11,595.922C1607.83,639.157 1609.44,656.28 1610,701C1610.61,749.396 1606.35,800.172 1587.75,845.375C1570.36,887.646 1540.23,922.33 1507,953L1465,991L1490,1008C1584,1073 1618,1126 1634,1235C1645,1303 1638,1419 1620,1465C1580,1570 1539,1610 1417,1659C1371,1677 1173,1671 1117,1650M1380,1515.67C1396,1507.67 1421,1479.67 1436,1454.67C1458,1416.67 1464,1413 1468,1335C1471.83,1261.2 1467.4,1206.45 1452.61,1165.16C1436.53,1120.3 1408.22,1091.31 1365,1071C1335.7,1057.37 1304.8,1051.05 1274.72,1051.28C1234.31,1051.59 1195.37,1063.69 1163.77,1085.72C1137.81,1103.81 1116.81,1128.58 1104,1159C1093.19,1184.44 1085.89,1266.09 1087.5,1336.84C1088.41,1377.31 1096.45,1421.08 1122.23,1462.51C1137.57,1487.15 1178.85,1514.93 1203.73,1519.95C1212.88,1521.8 1278.44,1545.15 1380,1515.67M1353,918C1368.05,909.434 1382.21,899.19 1394.02,886.422C1437.76,839.107 1440.28,766.662 1440,706C1439.92,689.306 1439.61,672.596 1438.5,655.939C1434.56,597.155 1421.82,530.018 1365.2,500.111C1351.7,492.982 1336.84,488.242 1322,485C1238,467 1154,506 1125,577C1113.5,604.747 1110.61,638.02 1108.33,667.521C1105.2,708.141 1108.73,744.978 1116.64,784.886C1116.94,786.35 1126.22,830.177 1130,839C1135.09,850.886 1149.39,869.056 1157.03,877.58C1170.87,893.017 1186.59,908.006 1205,918C1232,933 1325,933 1353,918" style="fill:rgb(2,2,2);fill-rule:nonzero;"/>
                </g>
                <g transform="matrix(1.32029,0,0,1.36435,8.52807,6.96492)">
                    <path d="M138.465,136.271L138.465,126.045L136.628,126.045L136.628,125.24L139.133,124.451L140.205,124.451L140.205,136.271L138.465,136.271Z" style="fill:rgb(35,31,32);fill-rule:nonzero;"/>
                </g>
            </g>
            <path d="M123.987,87.453L97.355,87.453C92.345,87.453 88.269,83.377 88.269,78.367C88.269,73.356 92.345,69.281 97.355,69.281L138.374,69.281L138.374,73.042L97.355,73.042C94.419,73.042 92.028,75.43 92.028,78.367C92.028,81.305 94.419,83.693 97.355,83.693L123.987,83.693L123.987,87.453" style="fill:rgb(34,30,31);fill-rule:nonzero;"/>
            <path d="M190.332,104.225C189.293,104.225 188.453,103.385 188.453,102.345L188.453,73.041L139.313,73.041C138.276,73.041 137.434,72.199 137.434,71.162C137.434,70.123 138.276,69.281 139.313,69.281L190.332,69.281C191.369,69.281 192.212,70.123 192.212,71.162L192.212,102.345C192.212,103.385 191.369,104.225 190.332,104.225" style="fill:rgb(34,30,31);fill-rule:nonzero;"/>
            <path d="M123.987,101.865L81.689,101.865L81.689,98.106L123.987,98.106C126.924,98.106 129.313,95.716 129.313,92.779C129.313,89.843 126.924,87.453 123.987,87.453L107.851,87.453L107.851,83.693L123.987,83.693C128.996,83.693 133.073,87.77 133.073,92.779C133.073,97.788 128.996,101.865 123.987,101.865" style="fill:rgb(34,30,31);fill-rule:nonzero;"/>
            <path d="M123.987,116.279L72.29,116.279C67.279,116.279 63.204,112.202 63.204,107.192C63.204,102.181 67.279,98.106 72.29,98.106L123.987,98.106L123.987,101.865L72.29,101.865C69.354,101.865 66.963,104.255 66.963,107.192C66.963,110.13 69.354,112.518 72.29,112.518L123.987,112.518L123.987,116.279" style="fill:rgb(34,30,31);fill-rule:nonzero;"/>
            <path d="M123.987,130.689L97.355,130.689L97.355,126.929L123.987,126.929C126.924,126.929 129.313,124.541 129.313,121.603C129.313,118.668 126.924,116.279 123.987,116.279L97.355,116.279L97.355,112.518L123.987,112.518C128.996,112.518 133.073,116.594 133.073,121.603C133.073,126.613 128.996,130.689 123.987,130.689" style="fill:rgb(34,30,31);fill-rule:nonzero;"/>
            <path d="M123.987,188.338L97.355,188.338L97.355,184.579L123.987,184.579C126.924,184.579 129.313,182.189 129.313,179.253C129.313,176.317 126.924,173.927 123.987,173.927L97.355,173.927L97.355,170.166L123.987,170.166C128.996,170.166 133.073,174.243 133.073,179.253C133.073,184.263 128.996,188.338 123.987,188.338" style="fill:rgb(34,30,31);fill-rule:nonzero;"/>
            <path d="M123.987,202.751L81.062,202.751C76.052,202.751 71.977,198.675 71.977,193.664C71.977,188.655 76.052,184.579 81.062,184.579L123.987,184.579L123.987,188.338L81.062,188.338C78.126,188.338 75.737,190.728 75.737,193.664C75.737,196.601 78.126,198.99 81.062,198.99L123.987,198.99L123.987,202.751" style="fill:rgb(34,30,31);fill-rule:nonzero;"/>
            <path d="M123.987,217.163L97.355,217.163C96.317,217.163 95.476,216.321 95.476,215.284C95.476,214.245 96.317,213.404 97.355,213.404L123.987,213.404C126.924,213.404 129.313,211.014 129.313,208.077C129.313,205.14 126.924,202.751 123.987,202.751L97.355,202.751C96.317,202.751 95.476,201.909 95.476,200.871C95.476,199.832 96.317,198.99 97.355,198.99L123.987,198.99C128.996,198.99 133.073,203.067 133.073,208.077C133.073,213.088 128.996,217.163 123.987,217.163" style="fill:rgb(34,30,31);fill-rule:nonzero;"/>
            <path d="M190.392,104.225L190.305,104.228C189.057,104.273 188.079,105.326 188.124,106.575C188.167,107.799 189.16,108.759 190.385,108.759L190.47,108.757C191.076,108.736 191.636,108.479 192.05,108.035C192.461,107.592 192.677,107.017 192.653,106.412C192.609,105.186 191.615,104.225 190.392,104.225M190.385,112.519C187.126,112.519 184.483,109.967 184.367,106.71C184.246,103.391 186.848,100.589 190.17,100.469L190.392,100.465C193.648,100.465 196.291,103.017 196.41,106.274C196.47,107.881 195.899,109.416 194.803,110.595C193.706,111.775 192.215,112.457 190.606,112.514L190.385,112.519" style="fill:rgb(34,30,31);fill-rule:nonzero;"/>
            <path d="M181.682,129.423L212.106,129.423L212.106,123.484L181.682,123.484L181.682,129.423ZM213.306,133.183L180.482,133.183C179.07,133.183 177.921,132.035 177.921,130.624L177.921,122.284C177.921,120.873 179.07,119.724 180.482,119.724L213.306,119.724C214.717,119.724 215.865,120.873 215.865,122.284L215.865,130.624C215.865,132.035 214.717,133.183 213.306,133.183" style="fill:rgb(34,30,31);fill-rule:nonzero;"/>
            <path d="M179.802,128.5L167.13,128.5C166.09,128.5 165.249,127.659 165.249,126.619C165.249,125.582 166.09,124.739 167.13,124.739L179.802,124.739C180.84,124.739 181.681,125.582 181.681,126.619C181.681,127.659 180.84,128.5 179.802,128.5" style="fill:rgb(34,30,31);fill-rule:nonzero;"/>
            <rect x="213.985" y="124.407" width="5.33" height="3.76" style="fill:rgb(34,30,31);fill-rule:nonzero;"/>
            <rect x="213.985" y="140.654" width="5.33" height="3.76" style="fill:rgb(34,30,31);fill-rule:nonzero;"/>
            <path d="M224.671,123.673L224.574,123.675C223.878,123.699 223.233,123.994 222.757,124.507C222.281,125.017 222.033,125.684 222.059,126.38C222.11,127.795 223.255,128.901 224.664,128.901L224.764,128.899C226.207,128.847 227.335,127.631 227.284,126.192C227.232,124.779 226.083,123.673 224.671,123.673M224.664,132.661C221.22,132.661 218.426,129.963 218.302,126.518C218.239,124.818 218.842,123.194 220.003,121.947C221.162,120.699 222.738,119.978 224.439,119.917C227.981,119.77 230.91,122.533 231.041,126.054C231.168,129.567 228.416,132.528 224.902,132.656L224.664,132.661" style="fill:rgb(34,30,31);fill-rule:nonzero;"/>
            <path d="M224.671,139.92L224.574,139.922C223.878,139.946 223.233,140.24 222.757,140.754C222.281,141.265 222.033,141.93 222.059,142.628C222.11,144.042 223.255,145.149 224.664,145.149L224.764,145.147C226.207,145.094 227.335,143.879 227.284,142.438C227.232,141.026 226.083,139.92 224.671,139.92M224.664,148.908C221.22,148.908 218.426,146.21 218.302,142.764C218.239,141.066 218.842,139.441 220.003,138.195C221.162,136.945 222.738,136.226 224.439,136.165L224.671,136.159C228.116,136.159 230.915,138.858 231.041,142.3C231.168,145.815 228.416,148.775 224.902,148.903L224.664,148.908" style="fill:rgb(34,30,31);fill-rule:nonzero;"/>
            <path d="M224.671,139.92L224.574,139.922C223.878,139.946 223.233,140.24 222.757,140.754C222.281,141.265 222.033,141.93 222.059,142.628C222.11,144.042 223.255,145.149 224.664,145.149L224.764,145.147C226.207,145.094 227.335,143.879 227.284,142.438C227.232,141.026 226.083,139.92 224.671,139.92M224.664,148.908C221.22,148.908 218.426,146.21 218.302,142.764C218.239,141.066 218.842,139.441 220.003,138.195C221.162,136.945 222.738,136.226 224.439,136.165L224.671,136.159C228.116,136.159 230.915,138.858 231.041,142.3C231.168,145.815 228.416,148.775 224.902,148.903L224.664,148.908" style="fill:rgb(34,30,31);fill-rule:nonzero;"/>
            <path d="M224.671,157.68L224.574,157.682C223.878,157.706 223.233,158.001 222.757,158.514C222.281,159.025 222.033,159.691 222.059,160.387C222.11,161.802 223.255,162.908 224.665,162.908L224.765,162.906C226.207,162.855 227.335,161.639 227.284,160.199C227.232,158.786 226.083,157.68 224.671,157.68M224.665,166.668C221.221,166.668 218.426,163.97 218.302,160.525C218.239,158.825 218.842,157.201 220.003,155.954C221.162,154.706 222.738,153.986 224.439,153.924C227.981,153.785 230.91,156.538 231.041,160.061C231.168,163.575 228.415,166.535 224.902,166.665L224.665,166.668" style="fill:rgb(34,30,31);fill-rule:nonzero;"/>
            <path d="M156.988,92.619L180.696,92.619L180.696,84.502L156.988,84.502L156.988,92.619ZM180.836,96.379L156.851,96.379C154.854,96.379 153.229,94.755 153.229,92.758L153.229,84.363C153.229,82.367 154.854,80.741 156.851,80.741L180.836,80.741C182.833,80.741 184.457,82.367 184.457,84.363L184.457,92.758C184.457,94.755 182.833,96.379 180.836,96.379" style="fill:rgb(34,30,31);fill-rule:nonzero;"/>
            <path d="M161.898,86.199C163.201,86.199 164.259,87.257 164.259,88.56C164.259,89.863 163.201,90.92 161.898,90.92C160.594,90.92 159.536,89.863 159.536,88.56C159.536,87.257 160.594,86.199 161.898,86.199" style="fill:rgb(34,30,31);fill-rule:nonzero;"/>
            <path d="M176.311,86.199C177.612,86.199 178.671,87.257 178.671,88.56C178.671,89.863 177.612,90.92 176.311,90.92C175.006,90.92 173.95,89.863 173.95,88.56C173.95,87.257 175.006,86.199 176.311,86.199" style="fill:rgb(34,30,31);fill-rule:nonzero;"/>
            <path d="M169.104,86.199C170.407,86.199 171.465,87.257 171.465,88.56C171.465,89.863 170.407,90.92 169.104,90.92C167.799,90.92 166.743,89.863 166.743,88.56C166.743,87.257 167.799,86.199 169.104,86.199" style="fill:rgb(34,30,31);fill-rule:nonzero;"/>
            <path d="M172.559,208.178C171.521,208.178 170.68,207.337 170.68,206.298L170.68,160.293C170.68,159.256 171.521,158.413 172.559,158.413L220.182,158.413C221.219,158.413 222.061,159.256 222.061,160.293C222.061,161.332 221.219,162.174 220.182,162.174L174.44,162.174L174.44,206.298C174.44,207.337 173.597,208.178 172.559,208.178" style="fill:rgb(34,30,31);fill-rule:nonzero;"/>
            <path d="M157.355,210.165L157.258,210.168C156.56,210.192 155.914,210.489 155.439,211C154.964,211.511 154.716,212.177 154.742,212.874C154.792,214.288 155.938,215.394 157.349,215.394L157.446,215.391C158.889,215.339 160.021,214.124 159.967,212.684C159.916,211.272 158.769,210.165 157.355,210.165M157.349,219.153C153.904,219.153 151.108,216.456 150.985,213.011C150.922,211.309 151.527,209.686 152.686,208.44C153.845,207.192 155.42,206.471 157.122,206.409C160.686,206.266 163.595,209.026 163.726,212.547C163.852,216.059 161.097,219.022 157.585,219.15L157.349,219.153" style="fill:rgb(34,30,31);fill-rule:nonzero;"/>
            <path d="M172.559,210.165L172.462,210.168C171.766,210.192 171.121,210.489 170.646,211C170.168,211.511 169.921,212.177 169.947,212.873C169.997,214.288 171.143,215.394 172.552,215.394L172.652,215.391C174.093,215.339 175.223,214.124 175.171,212.684C175.12,211.272 173.971,210.165 172.559,210.165M172.552,219.153C169.108,219.153 166.314,216.456 166.189,213.011C166.128,211.309 166.73,209.686 167.891,208.44C169.051,207.192 170.626,206.471 172.328,206.409C175.875,206.286 178.8,209.026 178.928,212.548C179.057,216.059 176.303,219.022 172.79,219.15L172.552,219.153" style="fill:rgb(34,30,31);fill-rule:nonzero;"/>
            <path d="M219.394,109.005C218.09,109.005 217.033,107.949 217.033,106.645C217.033,105.343 218.09,104.284 219.394,104.284C220.699,104.284 221.754,105.343 221.754,106.645C221.754,107.949 220.699,109.005 219.394,109.005" style="fill:rgb(34,30,31);fill-rule:nonzero;"/>
            <path d="M204.981,109.005C203.677,109.005 202.62,107.949 202.62,106.645C202.62,105.343 203.677,104.284 204.981,104.284C206.286,104.284 207.341,105.343 207.341,106.645C207.341,107.949 206.286,109.005 204.981,109.005" style="fill:rgb(34,30,31);fill-rule:nonzero;"/>
            <path d="M204.01,90.92C202.706,90.92 201.649,89.863 201.649,88.562C201.649,87.257 202.706,86.199 204.01,86.199C205.315,86.199 206.37,87.257 206.37,88.562C206.37,89.863 205.315,90.92 204.01,90.92" style="fill:rgb(34,30,31);fill-rule:nonzero;"/>
            <path d="M212.188,109.005C210.885,109.005 209.827,107.949 209.827,106.645C209.827,105.343 210.885,104.284 212.188,104.284C213.493,104.284 214.548,105.343 214.548,106.645C214.548,107.949 213.493,109.005 212.188,109.005" style="fill:rgb(34,30,31);fill-rule:nonzero;"/>
            <path d="M222.312,173.327C222.312,172.022 223.368,170.966 224.671,170.966C225.974,170.966 227.033,172.022 227.033,173.327C227.033,174.633 225.974,175.687 224.671,175.687C223.368,175.687 222.312,174.633 222.312,173.327" style="fill:rgb(34,30,31);fill-rule:nonzero;"/>
            <path d="M196.37,214.658L177.051,214.658C176.011,214.658 175.17,213.817 175.17,212.78C175.17,211.74 176.011,210.899 177.051,210.899L196.37,210.899C197.408,210.899 198.251,211.74 198.251,212.78C198.251,213.817 197.408,214.658 196.37,214.658" style="fill:rgb(34,30,31);fill-rule:nonzero;"/>
            <path d="M200.073,92.498L207.947,92.498L207.947,84.624L200.073,84.624L200.073,92.498ZM208.574,96.259L199.446,96.259C197.719,96.259 196.313,94.852 196.313,93.125L196.313,83.997C196.313,82.268 197.719,80.865 199.446,80.865L208.574,80.865C210.301,80.865 211.706,82.268 211.706,83.997L211.706,93.125C211.706,94.852 210.301,96.259 208.574,96.259" style="fill:rgb(34,30,31);fill-rule:nonzero;"/>
            <path d="M143.569,46.477C90.527,46.477 47.374,89.628 47.374,142.672C47.374,195.715 90.527,238.867 143.569,238.867C196.611,238.867 239.765,195.715 239.765,142.672C239.765,89.628 196.611,46.477 143.569,46.477M143.569,246.387C86.381,246.387 39.854,199.861 39.854,142.672C39.854,85.483 86.381,38.958 143.569,38.958C200.757,38.958 247.283,85.483 247.283,142.672C247.283,199.861 200.757,246.387 143.569,246.387" style="fill:rgb(95,197,224);fill-rule:nonzero;"/>
            <path d="M146.093,76.721C146.093,78.116 144.964,79.244 143.569,79.244C142.175,79.244 141.044,78.116 141.044,76.721L141.044,67.126C141.044,65.731 142.175,64.602 143.569,64.602C144.964,64.602 146.093,65.731 146.093,67.126L146.093,76.721ZM143.571,59.967L143.355,59.97C141.576,60.027 139.928,60.773 138.712,62.07C137.494,63.368 136.858,65.063 136.914,66.839L142.034,225.894C142.06,226.721 142.74,227.378 143.569,227.378C144.397,227.378 145.077,226.721 145.103,225.894L150.224,66.833C150.226,66.702 150.226,66.55 150.224,66.412C150.107,62.797 147.185,59.967 143.571,59.967" style="fill:rgb(95,197,224);fill-rule:nonzero;"/>
            <path d="M123.987,145.101L64.144,145.101C59.133,145.101 55.057,141.025 55.057,136.015C55.057,131.006 59.133,126.929 64.144,126.929L123.987,126.929L123.987,130.689L64.144,130.689C61.207,130.689 58.817,133.078 58.817,136.015C58.817,138.953 61.207,141.34 64.144,141.34L123.987,141.34L123.987,145.101" style="fill:rgb(34,30,31);fill-rule:nonzero;"/>
            <path d="M123.987,159.515L97.355,159.515L97.355,155.755L123.987,155.755C126.924,155.755 129.313,153.366 129.313,150.428C129.313,147.493 126.924,145.101 123.987,145.101L97.355,145.101L97.355,141.341L123.987,141.341C128.996,141.341 133.073,145.418 133.073,150.428C133.073,155.439 128.996,159.515 123.987,159.515" style="fill:rgb(34,30,31);fill-rule:nonzero;"/>
            <path d="M123.987,173.927L66.651,173.927C61.641,173.927 57.564,169.851 57.564,164.841C57.564,159.831 61.641,155.755 66.651,155.755L123.987,155.755L123.987,159.515L66.651,159.515C63.713,159.515 61.324,161.904 61.324,164.841C61.324,167.778 63.713,170.166 66.651,170.166L123.987,170.166L123.987,173.927" style="fill:rgb(34,30,31);fill-rule:nonzero;"/>
            <path d="M181.682,145.67L212.106,145.67L212.106,139.732L181.682,139.732L181.682,145.67ZM213.306,149.43L180.482,149.43C179.07,149.43 177.921,148.282 177.921,146.872L177.921,138.53C177.921,137.12 179.07,135.972 180.482,135.972L213.306,135.972C214.717,135.972 215.865,137.12 215.865,138.53L215.865,146.872C215.865,148.282 214.717,149.43 213.306,149.43" style="fill:rgb(34,30,31);fill-rule:nonzero;"/>
            <path d="M179.802,144.749L167.13,144.749C166.09,144.749 165.249,143.907 165.249,142.868C165.249,141.83 166.09,140.988 167.13,140.988L179.802,140.988C180.84,140.988 181.681,141.83 181.681,142.868C181.681,143.907 180.84,144.749 179.802,144.749" style="fill:rgb(34,30,31);fill-rule:nonzero;"/>
            <path d="M158.448,209.043C157.41,209.043 156.567,208.202 156.567,207.163L156.567,105.11C156.567,104.071 157.41,103.23 158.448,103.23L187.339,103.23C188.376,103.23 188.019,104.071 188.019,105.11C188.019,106.147 188.376,106.989 187.339,106.989L160.327,106.989L160.327,207.163C160.327,208.202 159.486,209.043 158.448,209.043" style="fill:rgb(34,30,31);fill-rule:nonzero;"/>
            <path d="M178.085,73.042L144.248,73.042C143.209,73.042 142.367,72.199 142.367,71.162C142.367,70.123 143.209,69.281 144.248,69.281L178.085,69.281C179.124,69.281 179.965,70.123 179.965,71.162C179.965,72.199 179.124,73.042 178.085,73.042" style="fill:rgb(34,30,31);fill-rule:nonzero;"/>
            <path d="M267.617,138.41C267.159,138.41 266.697,138.463 266.243,138.569C264.682,138.933 263.356,139.884 262.51,141.245C261.664,142.607 261.399,144.217 261.763,145.779C262.402,148.509 264.803,150.417 267.601,150.417L267.602,150.417C268.059,150.417 268.521,150.365 268.973,150.258C272.195,149.505 274.205,146.271 273.453,143.048C272.815,140.318 270.415,138.41 267.617,138.41M267.602,156.417L267.601,156.417C262,156.417 257.197,152.604 255.92,147.143C255.192,144.02 255.722,140.801 257.414,138.078C259.106,135.356 261.758,133.455 264.88,132.726C265.779,132.516 266.699,132.41 267.617,132.41C273.217,132.41 278.02,136.223 279.296,141.683C280.8,148.128 276.781,154.595 270.338,156.101C269.438,156.311 268.518,156.417 267.602,156.417" style="fill:rgb(95,197,224);fill-rule:nonzero;"/>
            <path d="M19.542,139.666C19.084,139.666 18.621,139.719 18.168,139.825C14.945,140.577 12.935,143.812 13.688,147.035C14.325,149.766 16.727,151.674 19.525,151.674C19.982,151.674 20.444,151.62 20.897,151.515C24.119,150.762 26.13,147.527 25.377,144.304C24.74,141.574 22.34,139.666 19.542,139.666M19.525,157.674C13.924,157.674 9.121,153.859 7.845,148.399C6.341,141.953 10.359,135.486 16.804,133.982C17.703,133.772 18.624,133.666 19.542,133.666C25.142,133.666 29.944,137.48 31.221,142.939C32.725,149.385 28.706,155.852 22.261,157.356C21.363,157.567 20.441,157.674 19.525,157.674" style="fill:rgb(95,197,224);fill-rule:nonzero;"/>
        </g>
    </g>
</svg>
