<?xml version="1.0" encoding="UTF-8" standalone="no"?>
<!DOCTYPE svg PUBLIC "-//W3C//DTD SVG 1.1//EN" "http://www.w3.org/Graphics/SVG/1.1/DTD/svg11.dtd">
<svg id="logo" width="100%" height="100%" viewBox="0 0 1358 1387" version="1.1" xmlns="http://www.w3.org/2000/svg" xmlns:xlink="http://www.w3.org/1999/xlink" xml:space="preserve" style="fill-rule:evenodd;clip-rule:evenodd;stroke-linejoin:round;stroke-miterlimit:1.41421;">
    <g id="Layer-2" transform="matrix(4.16667,0,0,4.16667,0,0)">
        <path d="M40.33,214.702L49.257,232.38L63.858,225.006L65.934,229.116L32.194,246.156L30.118,242.046L45.551,234.252L36.623,216.575L21.19,224.369L19.114,220.259L52.854,203.219L54.931,207.329L40.33,214.702Z" style="fill:rgb(35,31,32);fill-rule:nonzero;"/>
        <path d="M73.492,246.666C68.893,248.621 64.66,250.342 60.795,251.826L57.222,253.205L65.728,262.403L67.366,258.937C69.187,255.141 71.255,251.078 73.569,246.749L73.492,246.666ZM38.277,255.603L76.483,241.245L79.187,244.17L61.887,281.137L58.492,277.465L63.787,266.422L53.057,254.817L41.634,259.232L38.277,255.603Z" style="fill:rgb(35,31,32);fill-rule:nonzero;"/>
        <path d="M104.479,268.232C102.689,267.101 100.838,266.328 98.925,265.911C97.013,265.493 95.129,265.484 93.275,265.883C91.421,266.283 89.639,267.107 87.927,268.353C86.215,269.599 84.66,271.33 83.262,273.543C81.875,275.741 80.976,277.84 80.568,279.844C80.16,281.847 80.185,283.734 80.645,285.505C81.104,287.278 81.967,288.919 83.233,290.431C84.499,291.944 86.107,293.316 88.057,294.547C88.589,294.883 89.171,295.212 89.803,295.533C90.434,295.854 91.084,296.154 91.754,296.432C92.424,296.711 93.088,296.962 93.746,297.189C94.404,297.415 95.008,297.59 95.561,297.716L93.388,301.156C92.217,300.929 90.948,300.522 89.581,299.937C88.213,299.351 86.875,298.646 85.57,297.822C82.911,296.142 80.788,294.284 79.202,292.246C77.615,290.209 76.562,288.056 76.044,285.792C75.526,283.526 75.54,281.168 76.085,278.716C76.631,276.266 77.703,273.774 79.302,271.243C80.871,268.758 82.692,266.712 84.767,265.104C86.84,263.496 89.062,262.393 91.433,261.796C93.803,261.2 96.268,261.125 98.826,261.571C101.384,262.017 103.93,263.04 106.461,264.639C107.13,265.061 107.773,265.506 108.391,265.974C109.008,266.443 109.583,266.918 110.115,267.398C110.647,267.878 111.122,268.351 111.541,268.816C111.96,269.282 112.302,269.71 112.568,270.1L110.396,273.54C109.63,272.61 108.742,271.676 107.733,270.738C106.725,269.8 105.64,268.964 104.479,268.232" style="fill:rgb(35,31,32);fill-rule:nonzero;"/>
        <path d="M104.553,306.844L115.947,270.803L120.338,272.192L114.709,289.996L114.762,290.013L136.957,277.446L141.348,278.833L118.868,291.459L130.951,315.19L126.56,313.802L114.575,290.606L114.521,290.589L108.944,308.233L104.553,306.844Z" style="fill:rgb(35,31,32);fill-rule:nonzero;"/>
        <path d="M158.059,285.781C156.185,290.414 154.404,294.622 152.716,298.402L151.162,301.902L163.68,302.406L162.391,298.795C160.998,294.821 159.592,290.484 158.172,285.786L158.059,285.781ZM139.445,316.982L156.347,279.832L160.328,279.992L174.193,318.379L169.197,318.177L165.144,306.621L149.352,305.986L144.385,317.18L139.445,316.982Z" style="fill:rgb(35,31,32);fill-rule:nonzero;"/>
        <path d="M198.039,313.834L193.539,314.808L186.419,281.923L174.077,284.595L173.199,280.536L202.383,274.218L203.262,278.277L190.92,280.949L198.039,313.834Z" style="fill:rgb(35,31,32);fill-rule:nonzero;"/>
        <path d="M221.472,283.25L238.554,273.229L230.277,259.121L234.249,256.791L253.375,289.395L249.403,291.725L240.655,276.812L223.574,286.832L232.322,301.745L228.35,304.075L209.223,271.472L213.196,269.142L221.472,283.25Z" style="fill:rgb(35,31,32);fill-rule:nonzero;"/>
        <path d="M271.35,245.633C269.476,243.915 267.599,242.647 265.718,241.827C263.838,241.007 262.023,240.59 260.274,240.574C258.525,240.56 256.867,240.912 255.3,241.632C253.732,242.353 252.331,243.387 251.096,244.734C249.861,246.081 248.953,247.567 248.371,249.191C247.789,250.815 247.581,252.497 247.748,254.237C247.915,255.98 248.489,257.751 249.468,259.553C250.448,261.356 251.874,263.115 253.748,264.833C255.623,266.552 257.5,267.814 259.38,268.62C261.26,269.427 263.074,269.837 264.823,269.852C266.572,269.867 268.227,269.512 269.787,268.785C271.348,268.059 272.751,267.014 273.999,265.653C275.235,264.306 276.141,262.83 276.716,261.227C277.291,259.623 277.496,257.951 277.329,256.21C277.162,254.469 276.593,252.7 275.62,250.904C274.648,249.109 273.224,247.352 271.35,245.633M274.443,242.26C276.553,244.195 278.212,246.274 279.419,248.495C280.627,250.717 281.351,252.979 281.594,255.279C281.835,257.579 281.585,259.853 280.842,262.099C280.098,264.345 278.824,266.452 277.018,268.422C275.15,270.46 273.119,271.957 270.927,272.913C268.735,273.869 266.489,274.32 264.189,274.264C261.89,274.209 259.586,273.669 257.28,272.645C254.975,271.621 252.767,270.142 250.656,268.207C248.532,266.26 246.866,264.168 245.658,261.933C244.45,259.697 243.721,257.433 243.473,255.14C243.225,252.846 243.475,250.573 244.225,248.321C244.975,246.068 246.258,243.949 248.077,241.966C249.933,239.941 251.953,238.454 254.139,237.505C256.325,236.557 258.568,236.11 260.868,236.164C263.168,236.22 265.474,236.763 267.787,237.793C270.1,238.823 272.319,240.313 274.443,242.26" style="fill:rgb(35,31,32);fill-rule:nonzero;"/>
        <path d="M289.177,218.169C293.177,217.48 297.252,216.856 301.399,216.297L301.47,216.143C298.039,214.812 294.591,213.338 291.126,211.721L272.899,203.215L274.858,199.017L309.111,215.001L307.164,219.174L281.794,223.702C277.383,224.47 273.309,225.094 269.573,225.574L269.501,225.728C272.727,226.964 276.424,228.553 280.588,230.496L298.073,238.656L296.125,242.829L261.872,226.844L263.807,222.696L289.177,218.169Z" style="fill:rgb(35,31,32);fill-rule:nonzero;"/>
        <path d="M47.577,150.993L46.868,155.543L9.52,149.723L12.991,127.448L17.094,128.088L14.332,145.813L26.39,147.692L28.84,131.976L32.943,132.616L30.494,148.331L47.577,150.993Z" style="fill:rgb(6,7,7);fill-rule:nonzero;"/>
        <path d="M26.706,106.277C30.381,109.664 33.69,112.815 36.633,115.727L39.36,118.416L44.245,106.879L40.411,106.812C36.202,106.714 31.648,106.501 26.75,106.173L26.706,106.277ZM49.339,134.697L20.535,105.781L22.088,102.113L62.899,102.673L60.949,107.277L48.705,106.995L42.543,121.549L51.267,130.145L49.339,134.697Z" style="fill:rgb(6,7,7);fill-rule:nonzero;"/>
        <path d="M44.345,82.26C45.226,82.937 46.092,83.318 46.941,83.402C47.791,83.486 48.634,83.37 49.471,83.053C50.308,82.737 51.152,82.272 52.003,81.659C52.854,81.046 53.716,80.388 54.588,79.684C55.764,78.741 56.956,77.839 58.163,76.978C59.371,76.118 60.615,75.48 61.894,75.066C63.174,74.652 64.509,74.546 65.897,74.748C67.285,74.95 68.741,75.636 70.264,76.806C71.818,78 72.932,79.324 73.608,80.779C74.283,82.234 74.584,83.759 74.51,85.355C74.436,86.951 74.03,88.593 73.29,90.281C72.551,91.969 71.534,93.658 70.238,95.345C69.641,96.122 68.981,96.88 68.259,97.619C67.536,98.359 66.809,99.035 66.077,99.648C65.345,100.261 64.645,100.787 63.977,101.223C63.309,101.66 62.738,101.97 62.265,102.153L58.927,99.589C59.609,99.257 60.32,98.842 61.06,98.342C61.801,97.842 62.525,97.294 63.232,96.697C63.94,96.1 64.619,95.471 65.271,94.808C65.923,94.145 66.495,93.492 66.989,92.85C67.792,91.805 68.468,90.739 69.017,89.653C69.567,88.567 69.908,87.505 70.04,86.466C70.173,85.428 70.037,84.422 69.635,83.447C69.231,82.472 68.485,81.566 67.394,80.729C66.498,80.04 65.618,79.656 64.755,79.574C63.891,79.492 63.033,79.612 62.182,79.931C61.331,80.251 60.479,80.719 59.626,81.334C58.774,81.95 57.904,82.618 57.018,83.338C55.854,84.297 54.677,85.203 53.486,86.058C52.295,86.912 51.066,87.547 49.797,87.962C48.529,88.377 47.22,88.488 45.872,88.295C44.524,88.103 43.118,87.444 41.654,86.32C40.131,85.15 39.033,83.864 38.364,82.464C37.694,81.063 37.366,79.613 37.38,78.11C37.394,76.608 37.705,75.106 38.314,73.602C38.923,72.098 39.766,70.644 40.845,69.24C42.073,67.642 43.37,66.27 44.738,65.124C46.105,63.978 47.477,63.019 48.853,62.247L52.236,64.845C50.761,65.684 49.352,66.637 48.008,67.707C46.664,68.777 45.405,70.06 44.231,71.556C43.359,72.692 42.725,73.772 42.329,74.798C41.933,75.823 41.751,76.788 41.782,77.69C41.813,78.593 42.05,79.428 42.493,80.196C42.936,80.964 43.553,81.652 44.345,82.26" style="fill:rgb(6,7,7);fill-rule:nonzero;"/>
        <path d="M71.424,60.886L87.117,48.807L77.141,35.845L80.79,33.036L103.845,62.99L100.195,65.799L89.65,52.098L73.957,64.177L84.502,77.878L80.853,80.687L57.798,50.733L61.447,47.924L71.424,60.886Z" style="fill:rgb(6,7,7);fill-rule:nonzero;"/>
        <path d="M109.518,60.848L92.722,26.985L96.848,24.939L113.643,58.802L109.518,60.848Z" style="fill:rgb(6,7,7);fill-rule:nonzero;"/>
        <path d="M142.121,29.929C141.493,27.465 140.616,25.376 139.491,23.661C138.366,21.946 137.075,20.603 135.62,19.634C134.164,18.663 132.583,18.051 130.877,17.796C129.171,17.541 127.433,17.639 125.662,18.091C123.891,18.543 122.317,19.289 120.942,20.33C119.566,21.37 118.472,22.665 117.659,24.214C116.845,25.762 116.355,27.559 116.188,29.603C116.022,31.648 116.253,33.902 116.882,36.365C117.51,38.829 118.39,40.913 119.522,42.616C120.654,44.32 121.948,45.657 123.404,46.626C124.859,47.596 126.438,48.204 128.142,48.45C129.846,48.696 131.592,48.591 133.382,48.134C135.153,47.682 136.719,46.944 138.078,45.916C139.437,44.889 140.523,43.602 141.337,42.053C142.15,40.505 142.641,38.713 142.81,36.678C142.979,34.642 142.749,32.392 142.121,29.929M146.556,28.798C147.263,31.572 147.514,34.22 147.308,36.74C147.103,39.261 146.472,41.551 145.415,43.608C144.359,45.666 142.905,47.431 141.054,48.904C139.202,50.377 136.982,51.444 134.393,52.104C131.713,52.787 129.195,52.929 126.837,52.529C124.479,52.13 122.353,51.278 120.458,49.972C118.564,48.667 116.932,46.955 115.562,44.836C114.193,42.717 113.154,40.27 112.447,37.496C111.735,34.704 111.485,32.042 111.697,29.51C111.91,26.977 112.539,24.684 113.587,22.628C114.634,20.573 116.088,18.808 117.948,17.332C119.809,15.857 122.042,14.787 124.649,14.122C127.311,13.443 129.816,13.305 132.164,13.707C134.514,14.109 136.635,14.963 138.53,16.267C140.424,17.573 142.058,19.289 143.43,21.417C144.802,23.546 145.844,26.006 146.556,28.798" style="fill:rgb(6,7,7);fill-rule:nonzero;"/>
        <path d="M174.497,31.501C176.629,34.956 178.727,38.503 180.792,42.143L180.962,42.152C180.917,38.471 180.998,34.723 181.206,30.905L182.3,10.82L186.926,11.072L184.871,48.815L180.273,48.565L166.609,26.715C164.251,22.908 162.153,19.361 160.314,16.073L160.144,16.064C160.201,19.519 160.105,23.541 159.855,28.129L158.806,47.396L154.208,47.146L156.264,9.402L160.833,9.651L174.497,31.501Z" style="fill:rgb(6,7,7);fill-rule:nonzero;"/>
        <path d="M231.75,70.24L227.985,67.588L247.361,40.081L237.038,32.809L239.429,29.413L263.841,46.61L261.45,50.005L251.126,42.733L231.75,70.24Z" style="fill:rgb(6,7,7);fill-rule:nonzero;"/>
        <path d="M249.122,79.626L261.919,94.179L258.801,96.921L242.962,78.91L271.348,53.949L286.496,71.175L283.377,73.918L271.27,60.149L262.105,68.209L272.87,80.449L269.751,83.192L258.987,70.951L249.122,79.626Z" style="fill:rgb(6,7,7);fill-rule:nonzero;"/>
        <path d="M299.629,100.197C298.657,98.317 297.45,96.714 296.012,95.386C294.572,94.059 292.952,93.099 291.15,92.507C289.349,91.914 287.395,91.722 285.288,91.932C283.18,92.142 280.964,92.849 278.639,94.051C276.33,95.245 274.493,96.603 273.129,98.125C271.763,99.647 270.831,101.288 270.332,103.049C269.832,104.81 269.747,106.662 270.074,108.607C270.401,110.552 271.095,112.549 272.155,114.598C272.444,115.156 272.779,115.734 273.162,116.33C273.545,116.926 273.955,117.514 274.392,118.093C274.829,118.672 275.274,119.225 275.728,119.753C276.18,120.28 276.613,120.738 277.026,121.125L273.413,122.994C272.517,122.206 271.628,121.214 270.744,120.017C269.86,118.821 269.063,117.536 268.354,116.165C266.908,113.371 266.017,110.694 265.679,108.134C265.34,105.573 265.52,103.185 266.218,100.968C266.917,98.752 268.121,96.725 269.831,94.886C271.541,93.047 273.726,91.44 276.386,90.064C278.995,88.714 281.601,87.87 284.204,87.531C286.806,87.192 289.281,87.364 291.628,88.049C293.974,88.732 296.139,89.913 298.12,91.592C300.102,93.271 301.78,95.44 303.156,98.1C303.52,98.802 303.849,99.511 304.146,100.228C304.441,100.944 304.698,101.644 304.914,102.327C305.129,103.011 305.3,103.659 305.427,104.273C305.553,104.885 305.631,105.428 305.664,105.899L302.05,107.768C301.859,106.579 301.566,105.324 301.17,104.005C300.773,102.686 300.26,101.416 299.629,100.197" style="fill:rgb(6,7,7);fill-rule:nonzero;"/>
        <path d="M295.697,125.902L299.755,145.286L315.765,141.934L316.708,146.442L279.711,154.186L278.767,149.679L295.69,146.136L291.633,126.753L274.71,130.296L273.766,125.788L310.764,118.044L311.707,122.551L295.697,125.902Z" style="fill:rgb(6,7,7);fill-rule:nonzero;"/>
        <path d="M142.861,107.725L116.229,107.725C111.219,107.725 107.143,103.649 107.143,98.639C107.143,93.628 111.219,89.553 116.229,89.553L157.248,89.553L157.248,93.314L116.229,93.314C113.293,93.314 110.903,95.702 110.903,98.639C110.903,101.577 113.293,103.965 116.229,103.965L142.861,103.965L142.861,107.725" style="fill:rgb(34,30,31);fill-rule:nonzero;"/>
        <path d="M209.206,124.498C208.167,124.498 207.327,123.658 207.327,122.618L207.327,93.314L158.187,93.314C157.15,93.314 156.308,92.472 156.308,91.435C156.308,90.395 157.15,89.554 158.187,89.554L209.206,89.554C210.243,89.554 211.086,90.395 211.086,91.435L211.086,122.618C211.086,123.658 210.243,124.498 209.206,124.498" style="fill:rgb(34,30,31);fill-rule:nonzero;"/>
        <g id="gradient-group">
            <path d="M193.407,58.833L218.829,20.375L222.758,21.805L197.336,60.263L193.407,58.833Z" style="fill:url(#_Linear1);fill-rule:nonzero;"/>
            <path d="M162.443,67.75C109.401,67.75 66.248,110.901 66.248,163.945C66.248,216.988 109.401,260.14 162.443,260.14C215.485,260.14 258.639,216.988 258.639,163.945C258.639,110.901 215.485,67.75 162.443,67.75M162.443,267.66C105.255,267.66 58.728,221.134 58.728,163.945C58.728,106.756 105.255,60.23 162.443,60.23C219.631,60.23 266.157,106.756 266.157,163.945C266.157,221.134 219.631,267.66 162.443,267.66" style="fill:url(#_Linear2);fill-rule:nonzero;"/>
            <path d="M298.098,175.916C297.64,175.916 297.178,175.969 296.724,176.075C295.163,176.439 293.837,177.39 292.991,178.751C292.145,180.113 291.88,181.723 292.244,183.285C292.883,186.015 295.284,187.923 298.082,187.923L298.083,187.923C298.54,187.923 299.002,187.871 299.454,187.764C302.676,187.011 304.686,183.777 303.934,180.554C303.296,177.824 300.896,175.916 298.098,175.916M298.083,193.923L298.082,193.923C292.481,193.923 287.678,190.11 286.401,184.649C285.673,181.526 286.203,178.307 287.895,175.584C289.587,172.862 292.239,170.961 295.361,170.232C296.26,170.022 297.181,169.916 298.098,169.916C303.698,169.916 308.501,173.729 309.777,179.189C311.281,185.634 307.262,192.101 300.819,193.607C299.919,193.817 298.999,193.923 298.083,193.923" style="fill:url(#_Linear3);fill-rule:nonzero;"/>
            <path d="M28.107,175.916C27.649,175.916 27.187,175.969 26.733,176.075C23.511,176.827 21.501,180.062 22.253,183.285C22.891,186.016 25.292,187.924 28.09,187.924C28.548,187.924 29.01,187.87 29.462,187.765C32.685,187.012 34.695,183.777 33.943,180.554C33.305,177.824 30.905,175.916 28.107,175.916M28.09,193.924C22.489,193.924 17.687,190.109 16.41,184.649C14.906,178.203 18.925,171.736 25.37,170.232C26.269,170.022 27.19,169.916 28.107,169.916C33.707,169.916 38.51,173.729 39.786,179.189C41.29,185.635 37.271,192.102 30.827,193.606C29.928,193.817 29.007,193.924 28.09,193.924" style="fill:url(#_Linear4);fill-rule:nonzero;"/>
            <path d="M164.968,96.993C164.968,98.388 163.839,99.516 162.444,99.516C161.05,99.516 159.919,98.388 159.919,96.993L159.919,87.398C159.919,86.003 161.05,84.874 162.444,84.874C163.839,84.874 164.968,86.003 164.968,87.398L164.968,96.993ZM162.446,80.239L162.23,80.242C160.451,80.299 158.802,81.045 157.587,82.342C156.369,83.64 155.733,85.335 155.789,87.111L160.909,246.166C160.935,246.993 161.615,247.65 162.444,247.65C163.272,247.65 163.952,246.993 163.978,246.166L169.099,87.105C169.101,86.974 169.101,86.822 169.099,86.684C168.982,83.069 166.06,80.239 162.446,80.239" style="fill:url(#_Linear5);fill-rule:nonzero;"/>
        </g>
        <path d="M142.861,122.137L100.563,122.137L100.563,118.378L142.861,118.378C145.798,118.378 148.187,115.988 148.187,113.051C148.187,110.115 145.798,107.725 142.861,107.725L126.725,107.725L126.725,103.965L142.861,103.965C147.87,103.965 151.947,108.042 151.947,113.051C151.947,118.06 147.87,122.137 142.861,122.137" style="fill:rgb(34,30,31);fill-rule:nonzero;"/>
        <path d="M142.861,136.552L91.164,136.552C86.153,136.552 82.078,132.475 82.078,127.465C82.078,122.454 86.153,118.379 91.164,118.379L142.861,118.379L142.861,122.138L91.164,122.138C88.228,122.138 85.837,124.528 85.837,127.465C85.837,130.403 88.228,132.791 91.164,132.791L142.861,132.791L142.861,136.552" style="fill:rgb(34,30,31);fill-rule:nonzero;"/>
        <path d="M142.861,150.962L116.229,150.962L116.229,147.202L142.861,147.202C145.798,147.202 148.187,144.814 148.187,141.876C148.187,138.941 145.798,136.552 142.861,136.552L116.229,136.552L116.229,132.791L142.861,132.791C147.87,132.791 151.947,136.867 151.947,141.876C151.947,146.886 147.87,150.962 142.861,150.962" style="fill:rgb(34,30,31);fill-rule:nonzero;"/>
        <path d="M142.861,208.61L116.229,208.61L116.229,204.851L142.861,204.851C145.798,204.851 148.187,202.461 148.187,199.525C148.187,196.589 145.798,194.199 142.861,194.199L116.229,194.199L116.229,190.438L142.861,190.438C147.87,190.438 151.947,194.515 151.947,199.525C151.947,204.535 147.87,208.61 142.861,208.61" style="fill:rgb(34,30,31);fill-rule:nonzero;"/>
        <path d="M142.861,223.023L99.936,223.023C94.926,223.023 90.851,218.947 90.851,213.936C90.851,208.927 94.926,204.851 99.936,204.851L142.861,204.851L142.861,208.61L99.936,208.61C97,208.61 94.611,211 94.611,213.936C94.611,216.873 97,219.262 99.936,219.262L142.861,219.262L142.861,223.023" style="fill:rgb(34,30,31);fill-rule:nonzero;"/>
        <path d="M142.861,237.435L116.229,237.435C115.192,237.435 114.35,236.593 114.35,235.556C114.35,234.517 115.192,233.676 116.229,233.676L142.861,233.676C145.798,233.676 148.187,231.286 148.187,228.349C148.187,225.412 145.798,223.023 142.861,223.023L116.229,223.023C115.192,223.023 114.35,222.181 114.35,221.143C114.35,220.104 115.192,219.262 116.229,219.262L142.861,219.262C147.87,219.262 151.947,223.339 151.947,228.349C151.947,233.36 147.87,237.435 142.861,237.435" style="fill:rgb(34,30,31);fill-rule:nonzero;"/>
        <path d="M209.267,124.498L209.18,124.501C207.933,124.546 206.954,125.599 206.999,126.848C207.042,128.072 208.035,129.032 209.26,129.032L209.345,129.03C209.952,129.009 210.511,128.752 210.925,128.308C211.336,127.865 211.552,127.29 211.528,126.685C211.484,125.459 210.49,124.498 209.267,124.498M209.26,132.792C206.001,132.792 203.358,130.24 203.242,126.983C203.121,123.664 205.724,120.862 209.045,120.742L209.267,120.738C212.523,120.738 215.166,123.29 215.285,126.547C215.345,128.154 214.774,129.689 213.678,130.868C212.581,132.048 211.09,132.729 209.481,132.787L209.26,132.792" style="fill:rgb(34,30,31);fill-rule:nonzero;"/>
        <path d="M200.556,149.695L230.98,149.695L230.98,143.756L200.556,143.756L200.556,149.695ZM232.181,153.456L199.357,153.456C197.945,153.456 196.796,152.307 196.796,150.896L196.796,142.556C196.796,141.145 197.945,139.996 199.357,139.996L232.181,139.996C233.592,139.996 234.739,141.145 234.739,142.556L234.739,150.896C234.739,152.307 233.592,153.456 232.181,153.456" style="fill:rgb(34,30,31);fill-rule:nonzero;"/>
        <path d="M198.677,148.772L186.005,148.772C184.965,148.772 184.124,147.931 184.124,146.891C184.124,145.854 184.965,145.011 186.005,145.011L198.677,145.011C199.715,145.011 200.556,145.854 200.556,146.891C200.556,147.931 199.715,148.772 198.677,148.772" style="fill:rgb(34,30,31);fill-rule:nonzero;"/>
        <rect x="232.859" y="144.679" width="5.33" height="3.76" style="fill:rgb(34,30,31);"/>
        <rect x="232.859" y="160.927" width="5.33" height="3.76" style="fill:rgb(34,30,31);"/>
        <path d="M243.546,143.945L243.449,143.947C242.753,143.971 242.108,144.266 241.631,144.779C241.156,145.289 240.908,145.956 240.934,146.652C240.984,148.067 242.13,149.173 243.539,149.173L243.639,149.171C245.082,149.119 246.21,147.903 246.159,146.464C246.107,145.051 244.958,143.945 243.546,143.945M243.539,152.933C240.095,152.933 237.301,150.235 237.177,146.79C237.114,145.09 237.717,143.466 238.878,142.219C240.037,140.971 241.613,140.25 243.314,140.189C246.856,140.042 249.785,142.805 249.916,146.326C250.043,149.839 247.291,152.8 243.777,152.928L243.539,152.933" style="fill:rgb(34,30,31);fill-rule:nonzero;"/>
        <path d="M243.546,160.192L243.449,160.194C242.753,160.218 242.108,160.512 241.631,161.026C241.156,161.537 240.908,162.202 240.934,162.9C240.984,164.314 242.13,165.421 243.539,165.421L243.639,165.419C245.082,165.366 246.21,164.151 246.159,162.71C246.107,161.298 244.958,160.192 243.546,160.192M243.539,169.18C240.095,169.18 237.301,166.482 237.177,163.036C237.114,161.338 237.717,159.713 238.878,158.467C240.037,157.217 241.613,156.498 243.314,156.437L243.546,156.431C246.991,156.431 249.79,159.13 249.916,162.572C250.043,166.087 247.291,169.047 243.777,169.175L243.539,169.18" style="fill:rgb(34,30,31);fill-rule:nonzero;"/>
        <path d="M243.546,160.192L243.449,160.194C242.753,160.218 242.108,160.512 241.631,161.026C241.156,161.537 240.908,162.202 240.934,162.9C240.984,164.314 242.13,165.421 243.539,165.421L243.639,165.419C245.082,165.366 246.21,164.151 246.159,162.71C246.107,161.298 244.958,160.192 243.546,160.192M243.539,169.18C240.095,169.18 237.301,166.482 237.177,163.036C237.114,161.338 237.717,159.713 238.878,158.467C240.037,157.217 241.613,156.498 243.314,156.437L243.546,156.431C246.991,156.431 249.79,159.13 249.916,162.572C250.043,166.087 247.291,169.047 243.777,169.175L243.539,169.18" style="fill:rgb(34,30,31);fill-rule:nonzero;"/>
        <path d="M243.546,177.952L243.449,177.954C242.753,177.978 242.108,178.273 241.631,178.786C241.156,179.297 240.908,179.963 240.934,180.659C240.984,182.074 242.13,183.181 243.54,183.181L243.64,183.178C245.082,183.127 246.21,181.911 246.159,180.471C246.107,179.058 244.958,177.952 243.546,177.952M243.54,186.94C240.096,186.94 237.301,184.242 237.177,180.797C237.114,179.098 237.717,177.473 238.878,176.226C240.037,174.978 241.613,174.258 243.314,174.196C246.856,174.057 249.785,176.81 249.916,180.333C250.043,183.847 247.29,186.807 243.777,186.937L243.54,186.94" style="fill:rgb(34,30,31);fill-rule:nonzero;"/>
        <path d="M175.863,112.891L199.571,112.891L199.571,104.774L175.863,104.774L175.863,112.891ZM199.71,116.651L175.726,116.651C173.729,116.651 172.104,115.027 172.104,113.03L172.104,104.636C172.104,102.639 173.729,101.013 175.726,101.013L199.71,101.013C201.707,101.013 203.332,102.639 203.332,104.636L203.332,113.03C203.332,115.027 201.707,116.651 199.71,116.651" style="fill:rgb(34,30,31);fill-rule:nonzero;"/>
        <path d="M180.772,106.471C182.075,106.471 183.133,107.53 183.133,108.833C183.133,110.135 182.075,111.193 180.772,111.193C179.468,111.193 178.41,110.135 178.41,108.833C178.41,107.53 179.468,106.471 180.772,106.471" style="fill:rgb(34,30,31);fill-rule:nonzero;"/>
        <path d="M195.186,106.471C196.486,106.471 197.546,107.53 197.546,108.833C197.546,110.135 196.486,111.193 195.186,111.193C193.88,111.193 192.825,110.135 192.825,108.833C192.825,107.53 193.88,106.471 195.186,106.471" style="fill:rgb(34,30,31);fill-rule:nonzero;"/>
        <path d="M187.979,106.471C189.282,106.471 190.339,107.53 190.339,108.833C190.339,110.135 189.282,111.193 187.979,111.193C186.674,111.193 185.618,110.135 185.618,108.833C185.618,107.53 186.674,106.471 187.979,106.471" style="fill:rgb(34,30,31);fill-rule:nonzero;"/>
        <path d="M191.434,228.45C190.396,228.45 189.555,227.609 189.555,226.57L189.555,180.565C189.555,179.528 190.396,178.685 191.434,178.685L239.057,178.685C240.094,178.685 240.936,179.528 240.936,180.565C240.936,181.604 240.094,182.446 239.057,182.446L193.315,182.446L193.315,226.57C193.315,227.609 192.472,228.45 191.434,228.45" style="fill:rgb(34,30,31);fill-rule:nonzero;"/>
        <path d="M176.229,230.437L176.132,230.44C175.434,230.464 174.788,230.761 174.313,231.272C173.838,231.783 173.59,232.449 173.616,233.146C173.666,234.56 174.812,235.666 176.223,235.666L176.32,235.664C177.763,235.611 178.895,234.396 178.841,232.957C178.79,231.544 177.643,230.437 176.229,230.437M176.223,239.425C172.778,239.425 169.982,236.728 169.859,233.283C169.796,231.582 170.401,229.958 171.56,228.712C172.719,227.464 174.294,226.743 175.996,226.681C179.56,226.539 182.469,229.298 182.6,232.819C182.726,236.332 179.971,239.294 176.459,239.422L176.223,239.425" style="fill:rgb(34,30,31);fill-rule:nonzero;"/>
        <path d="M191.434,230.437L191.337,230.44C190.641,230.464 189.996,230.761 189.52,231.272C189.043,231.783 188.796,232.449 188.822,233.145C188.872,234.56 190.018,235.666 191.427,235.666L191.527,235.664C192.968,235.611 194.098,234.396 194.046,232.957C193.995,231.544 192.846,230.437 191.434,230.437M191.427,239.425C187.983,239.425 185.189,236.728 185.064,233.283C185.003,231.582 185.605,229.958 186.766,228.712C187.926,227.464 189.501,226.743 191.203,226.681C194.75,226.558 197.675,229.298 197.803,232.82C197.932,236.332 195.178,239.294 191.665,239.422L191.427,239.425" style="fill:rgb(34,30,31);fill-rule:nonzero;"/>
        <path d="M238.269,129.277C236.965,129.277 235.908,128.221 235.908,126.917C235.908,125.615 236.965,124.556 238.269,124.556C239.574,124.556 240.629,125.615 240.629,126.917C240.629,128.221 239.574,129.277 238.269,129.277" style="fill:rgb(34,30,31);fill-rule:nonzero;"/>
        <path d="M223.856,129.277C222.552,129.277 221.495,128.221 221.495,126.917C221.495,125.615 222.552,124.556 223.856,124.556C225.161,124.556 226.216,125.615 226.216,126.917C226.216,128.221 225.161,129.277 223.856,129.277" style="fill:rgb(34,30,31);fill-rule:nonzero;"/>
        <path d="M222.885,111.192C221.581,111.192 220.524,110.135 220.524,108.834C220.524,107.529 221.581,106.471 222.885,106.471C224.19,106.471 225.245,107.529 225.245,108.834C225.245,110.135 224.19,111.192 222.885,111.192" style="fill:rgb(34,30,31);fill-rule:nonzero;"/>
        <path d="M196.96,93.314L163.123,93.314C162.085,93.314 161.242,92.471 161.242,91.434C161.242,90.395 162.085,89.553 163.123,89.553L196.96,89.553C197.999,89.553 198.84,90.395 198.84,91.434C198.84,92.471 197.999,93.314 196.96,93.314" style="fill:rgb(34,30,31);fill-rule:nonzero;"/>
        <path d="M231.062,129.277C229.759,129.277 228.702,128.221 228.702,126.917C228.702,125.615 229.759,124.556 231.062,124.556C232.367,124.556 233.422,125.615 233.422,126.917C233.422,128.221 232.367,129.277 231.062,129.277" style="fill:rgb(34,30,31);fill-rule:nonzero;"/>
        <path d="M204.742,217.931L229.616,217.931L229.616,193.057L204.742,193.057L204.742,217.931ZM230.457,221.691L203.899,221.691C202.291,221.691 200.981,220.382 200.981,218.773L200.981,192.216C200.981,190.606 202.291,189.297 203.899,189.297L230.457,189.297C232.067,189.297 233.375,190.606 233.375,192.216L233.375,218.773C233.375,220.382 232.067,221.691 230.457,221.691" style="fill:rgb(34,30,31);fill-rule:nonzero;"/>
        <path d="M241.187,193.599C241.187,192.294 242.243,191.238 243.546,191.238C244.849,191.238 245.908,192.294 245.908,193.599C245.908,194.905 244.849,195.959 243.546,195.959C242.243,195.959 241.187,194.905 241.187,193.599" style="fill:rgb(34,30,31);fill-rule:nonzero;"/>
        <path d="M215.244,234.931L195.925,234.931C194.885,234.931 194.044,234.089 194.044,233.053C194.044,232.012 194.885,231.172 195.925,231.172L215.244,231.172C216.282,231.172 217.125,232.012 217.125,233.053C217.125,234.089 216.282,234.931 215.244,234.931" style="fill:rgb(34,30,31);fill-rule:nonzero;"/>
        <path d="M218.947,112.77L226.821,112.77L226.821,104.896L218.947,104.896L218.947,112.77ZM227.448,116.531L218.32,116.531C216.594,116.531 215.187,115.125 215.187,113.397L215.187,104.269C215.187,102.541 216.594,101.137 218.32,101.137L227.448,101.137C229.176,101.137 230.581,102.541 230.581,104.269L230.581,113.397C230.581,115.125 229.176,116.531 227.448,116.531" style="fill:rgb(34,30,31);fill-rule:nonzero;"/>
        <path d="M142.861,165.374L83.018,165.374C78.007,165.374 73.931,161.298 73.931,156.288C73.931,151.279 78.007,147.202 83.018,147.202L142.861,147.202L142.861,150.962L83.018,150.962C80.081,150.962 77.692,153.351 77.692,156.288C77.692,159.226 80.081,161.613 83.018,161.613L142.861,161.613L142.861,165.374" style="fill:rgb(34,30,31);fill-rule:nonzero;"/>
        <path d="M142.861,179.787L116.229,179.787L116.229,176.027L142.861,176.027C145.798,176.027 148.187,173.638 148.187,170.7C148.187,167.765 145.798,165.374 142.861,165.374L116.229,165.374L116.229,161.613L142.861,161.613C147.87,161.613 151.947,165.69 151.947,170.7C151.947,175.711 147.87,179.787 142.861,179.787" style="fill:rgb(34,30,31);fill-rule:nonzero;"/>
        <path d="M142.861,194.199L85.526,194.199C80.515,194.199 76.438,190.123 76.438,185.113C76.438,180.103 80.515,176.027 85.526,176.027L142.861,176.027L142.861,179.787L85.526,179.787C82.588,179.787 80.198,182.176 80.198,185.113C80.198,188.05 82.588,190.438 85.526,190.438L142.861,190.438L142.861,194.199" style="fill:rgb(34,30,31);fill-rule:nonzero;"/>
        <path d="M200.556,165.942L230.98,165.942L230.98,160.004L200.556,160.004L200.556,165.942ZM232.181,169.702L199.357,169.702C197.945,169.702 196.796,168.554 196.796,167.144L196.796,158.803C196.796,157.392 197.945,156.244 199.357,156.244L232.181,156.244C233.592,156.244 234.739,157.392 234.739,158.803L234.739,167.144C234.739,168.554 233.592,169.702 232.181,169.702" style="fill:rgb(34,30,31);fill-rule:nonzero;"/>
        <path d="M198.677,165.021L186.005,165.021C184.965,165.021 184.124,164.179 184.124,163.14C184.124,162.102 184.965,161.26 186.005,161.26L198.677,161.26C199.715,161.26 200.556,162.102 200.556,163.14C200.556,164.179 199.715,165.021 198.677,165.021" style="fill:rgb(34,30,31);fill-rule:nonzero;"/>
        <path d="M177.323,226.916C176.285,226.916 175.442,228.475 175.442,227.436L175.442,125.383C175.442,124.344 176.285,123.503 177.323,123.503L205.254,123.503C206.291,123.503 207.134,124.344 207.134,125.383C207.134,126.42 206.291,127.262 205.254,127.262L179.202,127.262L179.202,227.436C179.202,228.475 178.361,229.316 177.323,229.316" style="fill:rgb(34,30,31);fill-rule:nonzero;"/>
        <path d="M209.39,212.921L209.39,201.038L207.846,201.038L207.846,199.326L210.933,197.634L212.495,197.634L212.495,212.921L209.39,212.921Z" style="fill:rgb(35,31,32);fill-rule:nonzero;"/>
        <path d="M217.688,197.634L226.987,197.634L226.987,201.038L226.224,202.73L225.443,204.422C224.414,206.814 223.899,208.512 223.899,209.517L223.899,212.921L220.794,212.921L220.794,209.517C220.794,208.39 221.308,206.692 222.337,204.422L223.899,201.038L223.899,199.326L217.688,199.326L217.688,197.634Z" style="fill:rgb(35,31,32);fill-rule:nonzero;"/>
    </g>
    <defs>
        <linearGradient id="_Linear1" x1="0" y1="0" x2="1" y2="0" gradientUnits="userSpaceOnUse" gradientTransform="matrix(-173.529,251.93,-251.93,-173.529,259.289,26.5897)"><stop offset="0%" style="stop-color:rgb(203,221,85);stop-opacity:1"/><stop offset="100%" style="stop-color:rgb(0,161,133);stop-opacity:1"/></linearGradient>
        <linearGradient id="_Linear2" x1="0" y1="0" x2="1" y2="0" gradientUnits="userSpaceOnUse" gradientTransform="matrix(-173.529,251.93,-251.93,-173.529,259.289,26.5897)"><stop offset="0%" style="stop-color:rgb(203,221,85);stop-opacity:1"/><stop offset="100%" style="stop-color:rgb(0,161,133);stop-opacity:1"/></linearGradient>
        <linearGradient id="_Linear3" x1="0" y1="0" x2="1" y2="0" gradientUnits="userSpaceOnUse" gradientTransform="matrix(-173.529,251.93,-251.93,-173.529,259.289,26.5897)"><stop offset="0%" style="stop-color:rgb(203,221,85);stop-opacity:1"/><stop offset="100%" style="stop-color:rgb(0,161,133);stop-opacity:1"/></linearGradient>
        <linearGradient id="_Linear4" x1="0" y1="0" x2="1" y2="0" gradientUnits="userSpaceOnUse" gradientTransform="matrix(-173.529,251.93,-251.93,-173.529,259.289,26.5897)"><stop offset="0%" style="stop-color:rgb(203,221,85);stop-opacity:1"/><stop offset="100%" style="stop-color:rgb(0,161,133);stop-opacity:1"/></linearGradient>
        <linearGradient id="_Linear5" x1="0" y1="0" x2="1" y2="0" gradientUnits="userSpaceOnUse" gradientTransform="matrix(-173.529,251.93,-251.93,-173.529,259.289,26.5897)"><stop offset="0%" style="stop-color:rgb(203,221,85);stop-opacity:1"/><stop offset="100%" style="stop-color:rgb(0,161,133);stop-opacity:1"/></linearGradient>
    </defs>
</svg>
