<?xml version="1.0" standalone="no"?>
<!DOCTYPE svg PUBLIC "-//W3C//DTD SVG 20010904//EN"
 "http://www.w3.org/TR/2001/REC-SVG-20010904/DTD/svg10.dtd">
<svg version="1.0" xmlns="http://www.w3.org/2000/svg"
 width="1387.000000pt" height="1387.000000pt" viewBox="0 0 1387.000000 1387.000000"
 preserveAspectRatio="xMidYMid meet">
<metadata>
Created by potrace 1.11, written by Peter Selinger 2001-2013
</metadata>
<g transform="translate(0.000000,1387.000000) scale(0.100000,-0.100000)"
fill="#000000" stroke="none">
<path d="M6649 13447 c0 -18 -2 -50 -3 -72 -2 -22 -6 -105 -10 -185 -5 -80 -9
-167 -11 -195 -2 -27 -7 -106 -10 -175 -3 -69 -8 -150 -10 -180 -2 -30 -7
-116 -11 -190 -4 -74 -8 -153 -9 -175 -1 -22 -5 -110 -10 -195 -4 -85 -8 -159
-8 -165 -1 -5 27 -11 63 -12 36 -2 80 -4 98 -6 l32 -3 1 56 c0 30 2 71 4 90 1
19 5 98 9 175 4 77 9 160 11 185 2 25 6 110 10 190 4 80 8 177 10 215 2 39 5
144 5 234 1 90 5 159 10 155 4 -5 18 -27 30 -49 48 -86 311 -516 505 -825 112
-179 223 -356 246 -395 23 -38 43 -71 43 -72 8 -11 183 -20 193 -9 8 8 8 4 18
206 3 80 8 170 10 200 2 30 6 107 9 170 4 63 9 144 11 180 2 36 7 124 10 195
3 72 8 155 10 185 2 30 7 109 10 175 3 66 8 150 11 188 l5 67 -38 1 c-21 0
-64 3 -95 5 -32 2 -59 1 -59 -4 -4 -24 -7 -61 -13 -182 -4 -74 -9 -162 -11
-195 -2 -33 -7 -109 -10 -170 -3 -60 -8 -155 -11 -210 -9 -168 -13 -274 -13
-407 -1 -78 -5 -128 -11 -128 -5 0 -10 4 -10 9 0 10 -259 447 -351 592 -30 47
-59 94 -66 105 -66 110 -389 622 -397 631 -6 6 -52 14 -103 17 l-93 5 -1 -32z"/>
<path d="M5458 13305 c-2 -1 -24 -5 -49 -8 -62 -7 -190 -51 -261 -89 -66 -35
-147 -103 -202 -168 -47 -57 -108 -184 -132 -275 -19 -73 -26 -262 -12 -340 4
-22 10 -53 13 -70 36 -201 153 -409 295 -528 205 -173 508 -200 780 -71 170
80 287 217 352 408 27 80 31 107 34 221 4 184 -34 353 -114 511 -36 72 -119
185 -171 232 -88 81 -226 151 -326 167 -51 7 -201 15 -207 10z m153 -180 c125
-20 273 -130 353 -262 142 -237 166 -577 53 -765 -93 -154 -262 -247 -458
-249 -282 -4 -482 200 -565 576 -14 64 -13 231 2 299 58 274 324 448 615 401z"/>
<path d="M9126 12822 c-72 -108 -261 -395 -421 -637 -422 -639 -497 -753 -499
-762 0 -4 35 -21 78 -36 62 -21 82 -25 87 -15 8 14 464 703 706 1066 81 123
153 230 158 239 6 8 49 74 96 147 48 72 85 134 83 138 -4 5 -36 17 -149 54 -5
2 -68 -85 -139 -194z"/>
<path d="M4088 12789 c-43 -22 -78 -43 -78 -48 0 -14 689 -1401 696 -1401 14
0 164 75 164 82 0 13 -693 1408 -699 1407 -3 0 -41 -18 -83 -40z"/>
<path d="M10071 12581 c-22 -32 -42 -64 -43 -71 -2 -7 20 -28 48 -48 28 -21
122 -86 208 -147 86 -60 156 -113 156 -117 0 -6 -255 -371 -668 -956 -67 -95
-123 -177 -125 -181 -1 -5 32 -34 74 -64 l75 -54 404 573 c264 375 407 571
414 565 6 -4 102 -72 214 -151 192 -135 204 -141 218 -124 8 11 31 41 51 68
l36 49 -25 21 c-14 12 -117 85 -229 164 -112 79 -328 231 -479 337 -151 107
-278 195 -282 195 -4 0 -25 -27 -47 -59z"/>
<path d="M3428 12437 c-37 -29 -67 -56 -67 -60 -1 -7 45 -73 59 -87 9 -8 302
-391 327 -425 l21 -31 -25 -20 c-41 -30 -187 -141 -313 -239 -225 -174 -307
-235 -313 -235 -5 0 -377 476 -409 524 -4 6 -38 -15 -82 -48 l-76 -58 22 -32
c19 -26 298 -391 335 -436 6 -8 72 -93 145 -188 73 -96 177 -231 231 -300 53
-70 125 -164 160 -209 34 -45 65 -82 68 -82 3 -1 14 7 25 17 10 9 43 35 72 57
28 21 52 40 52 41 0 2 -122 161 -203 264 -24 30 -86 112 -139 181 l-96 125
175 135 c97 74 181 139 187 144 10 9 75 59 250 192 l42 32 89 -117 c50 -64
128 -166 175 -227 47 -62 99 -129 115 -150 17 -21 37 -47 45 -57 15 -19 18
-17 91 39 l76 58 -477 620 c-262 340 -480 620 -485 621 -6 1 -40 -21 -77 -49z"/>
<path d="M11396 11578 c-60 -52 -148 -129 -196 -172 -19 -17 -73 -65 -120
-105 -47 -41 -87 -77 -90 -80 -3 -4 -21 -19 -40 -35 -19 -15 -55 -47 -80 -70
-25 -22 -79 -70 -120 -106 -41 -36 -80 -70 -86 -75 -6 -6 -39 -35 -74 -65 -35
-30 -70 -62 -79 -70 -9 -9 -50 -45 -91 -80 -41 -36 -77 -67 -80 -70 -3 -3 -21
-19 -41 -36 l-36 -31 100 -114 c55 -63 123 -140 151 -173 28 -32 58 -66 67
-75 8 -9 80 -90 159 -181 80 -91 154 -175 165 -187 l20 -22 65 59 65 59 -40
43 c-22 23 -42 45 -45 48 -3 3 -34 39 -69 80 -36 41 -70 80 -76 85 -6 6 -67
75 -137 155 -69 80 -133 152 -142 159 -26 22 -18 43 33 86 46 39 173 150 195
170 6 6 44 39 84 74 l73 65 27 -31 c43 -48 77 -86 251 -285 91 -104 167 -188
171 -188 4 0 18 9 31 21 13 12 41 36 62 54 l37 32 -112 129 c-62 71 -122 139
-133 150 -11 12 -45 50 -75 85 -30 34 -72 82 -93 105 l-37 42 62 53 c35 30 72
63 83 74 11 11 34 31 51 45 18 14 66 56 109 95 l77 69 30 -34 c16 -19 44 -51
61 -70 18 -19 79 -89 137 -155 58 -66 119 -136 136 -155 17 -19 53 -60 80 -90
27 -30 54 -57 59 -58 12 -5 125 89 125 104 0 5 -13 23 -28 40 -15 16 -107 119
-202 229 -96 110 -179 205 -185 211 -5 6 -39 44 -75 85 -36 41 -81 91 -100
112 l-35 38 -49 -43z"/>
<path d="M6658 11355 c-1 -2 -44 -6 -94 -9 -92 -7 -140 -11 -204 -21 -19 -3
-51 -7 -70 -9 -119 -14 -387 -72 -565 -122 -518 -145 -1036 -409 -1470 -748
-702 -548 -1205 -1278 -1478 -2141 -25 -80 -55 -191 -63 -232 -2 -12 -9 -34
-14 -48 -5 -14 -8 -25 -5 -25 2 0 -1 -15 -6 -32 -5 -18 -12 -48 -15 -67 -3
-18 -8 -43 -10 -55 -2 -11 -7 -37 -10 -56 -4 -19 -8 -44 -10 -55 -13 -64 -43
-321 -49 -418 -4 -66 -5 -466 -1 -527 6 -94 17 -214 21 -240 3 -14 7 -50 11
-80 30 -276 134 -684 251 -985 120 -308 247 -552 439 -840 255 -384 536 -689
904 -984 119 -96 137 -109 161 -126 339 -228 492 -316 764 -440 130 -60 445
-177 509 -191 11 -2 40 -10 65 -18 86 -28 315 -82 431 -101 19 -3 60 -10 90
-15 30 -5 82 -12 115 -16 33 -3 62 -8 65 -9 18 -10 265 -20 505 -20 241 1 346
5 465 20 14 2 50 6 80 10 682 85 1376 359 1955 774 85 61 272 208 305 241 9 8
34 30 55 49 110 93 309 298 424 435 358 427 626 903 800 1423 65 195 114 387
147 573 8 47 17 96 20 110 3 14 7 43 10 65 2 22 9 74 14 115 25 194 34 610 17
825 -33 432 -145 915 -297 1280 -198 475 -423 842 -753 1229 -82 96 -353 364
-452 448 -340 285 -715 521 -1090 683 -149 64 -360 141 -500 180 -33 10 -80
23 -105 30 -47 14 -235 56 -330 75 -63 12 -251 38 -325 46 -27 3 -70 7 -95 10
-51 6 -606 14 -612 9z m542 -319 c70 -6 176 -18 295 -32 163 -19 520 -107 726
-179 457 -159 921 -425 1283 -735 132 -113 330 -309 412 -407 27 -32 54 -62
60 -68 29 -26 198 -254 275 -370 254 -386 446 -822 549 -1250 31 -130 33 -139
56 -265 16 -88 17 -96 29 -195 3 -33 8 -71 10 -84 17 -109 23 -446 12 -656 -7
-124 -9 -148 -22 -240 -3 -22 -7 -60 -10 -85 -7 -57 -13 -92 -25 -155 -6 -27
-12 -61 -15 -75 -3 -14 -7 -36 -10 -50 -3 -14 -7 -34 -9 -45 -41 -214 -171
-580 -299 -845 -277 -574 -697 -1083 -1211 -1469 -430 -323 -928 -559 -1448
-684 -126 -31 -211 -49 -243 -52 -9 -1 -69 -12 -117 -20 -9 -2 -43 -6 -75 -10
-32 -3 -71 -8 -88 -10 -143 -20 -547 -26 -750 -11 -60 4 -112 9 -115 11 -3 2
-30 6 -60 9 -85 9 -134 16 -150 21 -8 2 -35 7 -60 10 -66 9 -289 61 -410 96
-534 154 -1059 438 -1495 812 -129 111 -399 391 -508 527 -99 124 -276 380
-339 490 -14 25 -36 63 -48 85 -41 72 -146 288 -180 370 -18 44 -39 94 -47
112 -24 56 -99 284 -126 383 -52 189 -96 407 -113 555 -3 33 -8 68 -10 79 -10
54 -18 255 -19 436 0 224 7 344 30 520 15 113 18 131 29 180 3 14 8 41 10 60
10 69 67 297 107 425 109 348 257 666 450 967 65 101 194 285 209 298 3 3 19
23 35 45 17 22 32 42 35 45 3 3 36 41 74 85 150 172 396 407 554 527 31 23 59
45 62 48 3 3 35 27 72 53 440 310 885 515 1382 637 194 47 260 59 421 80 50 6
104 13 120 15 17 3 84 7 150 11 66 4 121 8 123 9 5 4 362 -3 432 -9z"/>
<path d="M6853 10519 c-80 -15 -147 -65 -188 -141 -29 -53 -30 -57 -35 -230 0
-4 -390 -9 -867 -10 l-868 -3 -65 -32 c-36 -18 -77 -43 -91 -55 -232 -206
-145 -575 155 -654 37 -10 192 -13 644 -14 575 -1 597 -1 641 -21 25 -11 57
-30 70 -42 83 -77 80 -243 -6 -319 -65 -56 12 -53 -1228 -58 -1239 -6 -1179
-3 -1270 -58 -57 -35 -83 -60 -120 -117 -120 -185 -60 -428 132 -536 87 -49
66 -49 1248 -49 611 0 1124 -4 1141 -9 105 -30 166 -108 165 -212 0 -89 -54
-171 -137 -205 -26 -11 -265 -14 -1321 -16 -708 -1 -1306 -6 -1328 -10 -166
-36 -294 -184 -301 -349 -5 -113 29 -201 109 -283 54 -56 84 -75 158 -100 38
-14 210 -16 1334 -16 764 0 1304 -4 1323 -10 132 -37 199 -178 145 -301 -23
-51 -77 -102 -125 -118 -23 -7 -425 -12 -1283 -15 -1164 -4 -1253 -5 -1300
-22 -99 -34 -172 -99 -218 -191 -103 -203 0 -448 218 -523 54 -18 90 -19 718
-20 364 -1 930 -2 1257 -3 l595 -2 40 -24 c79 -48 116 -111 116 -198 0 -81
-47 -155 -124 -194 -36 -19 -71 -20 -990 -23 -770 -2 -961 -5 -997 -16 -103
-32 -192 -109 -238 -209 -77 -166 -17 -372 136 -470 105 -66 50 -62 1097 -65
1047 -3 987 1 1053 -66 110 -110 77 -284 -68 -357 -32 -16 -85 -17 -625 -18
-427 -1 -596 -5 -611 -13 -53 -29 -44 -124 13 -138 15 -4 289 -7 608 -7 490 0
588 3 631 16 105 31 189 104 238 207 28 58 31 75 31 155 0 80 -3 97 -32 157
-56 118 -159 196 -287 216 -33 5 -454 9 -958 8 -624 -1 -914 2 -943 10 -96 24
-159 110 -158 214 0 92 46 160 131 198 42 19 74 19 940 18 493 -1 927 1 963 5
185 17 334 166 347 348 14 195 -120 363 -318 400 -36 6 -467 9 -1260 7 -918
-2 -1215 0 -1246 9 -98 29 -164 119 -159 218 5 88 46 151 125 193 34 18 85 19
1272 20 947 2 1250 5 1290 14 77 18 137 52 190 107 120 123 141 306 52 454
-59 99 -153 160 -273 180 -37 6 -545 9 -1323 7 -1422 -2 -1313 -8 -1383 75
-94 110 -63 274 65 343 34 18 86 19 1355 24 930 4 1329 9 1351 16 82 30 164
94 205 161 77 124 76 283 -1 403 -42 66 -90 106 -170 144 l-65 31 -1144 2
c-1137 3 -1145 3 -1187 24 -137 66 -168 243 -61 352 68 71 -4 67 1257 70
l1135 2 57 23 c195 79 291 318 204 508 -28 62 -114 153 -168 178 -92 44 -114
45 -737 46 -554 0 -597 2 -635 19 -85 38 -131 110 -130 206 0 90 45 158 129
196 38 18 87 19 893 19 l852 0 1 -42 c0 -24 2 -81 4 -128 2 -47 6 -179 9 -295
4 -115 9 -264 11 -330 3 -66 7 -205 10 -310 10 -306 20 -623 30 -930 3 -77 7
-216 10 -310 3 -93 7 -233 10 -310 8 -241 15 -464 20 -630 3 -88 7 -225 10
-305 3 -80 7 -221 10 -315 3 -93 7 -235 10 -315 3 -80 7 -215 10 -300 3 -85 7
-222 10 -305 3 -82 7 -224 10 -315 2 -91 7 -237 10 -325 13 -362 15 -419 21
-620 3 -115 7 -226 9 -245 1 -19 3 -43 4 -52 2 -26 44 -50 75 -42 49 12 48 -2
61 434 3 118 8 262 10 320 2 58 7 193 10 300 3 107 7 251 10 320 3 69 7 208
10 310 7 236 13 410 20 630 3 96 8 236 10 310 2 74 7 209 10 300 3 91 7 235
10 320 6 189 14 428 20 615 6 163 13 393 20 620 5 163 11 355 20 615 3 80 7
226 10 325 3 99 8 232 10 295 2 63 7 212 10 330 6 187 12 348 14 373 1 4 361
7 801 7 l800 0 0 -579 -1 -579 -27 -10 c-16 -5 -46 -27 -67 -48 l-40 -38 -574
-1 -573 -1 -24 -27 -24 -28 0 -2125 c0 -2016 -1 -2124 -17 -2124 -62 -1 -158
-79 -193 -157 -30 -67 -24 -172 13 -235 67 -114 224 -165 338 -110 189 92 208
344 35 466 -18 13 -19 61 -18 2087 0 1141 1 2079 1 2085 1 8 148 11 501 11
453 0 500 -1 500 -16 0 -9 10 -36 21 -61 106 -235 450 -181 476 75 10 99 -50
208 -136 246 -17 8 -32 16 -32 19 -1 3 -2 287 -3 632 l-1 628 -23 22 -23 23
-853 3 -853 2 2 68 c3 87 -25 175 -68 223 -64 71 -169 106 -264 88z m126 -220
c17 -17 31 -38 32 -47 5 -74 5 -93 -1 -102 -4 -7 -44 -10 -106 -8 l-99 3 -1
45 c-3 87 38 140 107 140 28 0 45 -7 68 -31z m34 -412 c-2 -101 -15 -131 -66
-152 -42 -18 -79 -9 -113 26 -25 26 -27 35 -29 124 l-3 96 106 -3 107 -3 -2
-88z m1890 -1219 c45 -24 58 -67 37 -122 -9 -25 -54 -54 -77 -50 -7 1 -20 2
-28 3 -32 2 -65 48 -65 88 1 73 70 115 133 81z m-1378 -4412 c36 -15 65 -59
65 -98 0 -41 -36 -86 -78 -99 -68 -20 -134 27 -134 95 0 39 21 82 45 94 51 25
60 25 102 8z"/>
<path d="M7390 9642 c-20 -12 -44 -37 -58 -63 -22 -41 -23 -52 -22 -250 1
-199 2 -207 26 -247 44 -74 35 -73 644 -70 l535 3 34 24 c56 40 62 68 63 301
1 229 -3 248 -65 294 -28 21 -37 21 -575 24 -518 2 -549 1 -582 -16z m1055
-141 c6 -1 10 -61 10 -162 0 -153 -1 -162 -20 -168 -11 -4 -231 -6 -490 -6
l-470 1 -5 44 c-3 25 -4 101 -2 170 l3 125 482 -2 c265 -1 487 -2 492 -2z"/>
<path d="M7940 9428 c-65 -23 -83 -112 -34 -162 83 -82 218 41 142 129 -28 31
-74 45 -108 33z"/>
<path d="M7624 9420 c-23 -9 -53 -64 -49 -89 2 -9 4 -21 4 -27 1 -6 13 -23 27
-38 46 -45 119 -33 149 25 44 84 -39 166 -131 129z"/>
<path d="M8207 9405 c-60 -60 -28 -153 55 -162 59 -7 97 24 105 84 5 37 2 45
-25 73 -40 40 -97 42 -135 5z"/>
<path d="M9192 9643 c-20 -7 -38 -13 -39 -13 -1 0 -12 -17 -24 -37 -22 -35
-23 -45 -23 -258 0 -241 3 -256 62 -300 25 -18 44 -19 257 -20 222 0 231 1
261 22 59 42 64 67 64 305 0 212 0 214 -25 250 -14 21 -35 43 -48 50 -32 18
-435 19 -485 1z m398 -308 l0 -165 -163 0 -163 0 -1 165 0 165 164 0 163 0 0
-165z"/>
<path d="M9359 9401 c-77 -78 13 -196 114 -150 55 25 66 107 21 153 -38 38
-95 36 -135 -3z"/>
<path d="M9425 8666 c-71 -31 -72 -136 -2 -169 82 -40 172 45 132 124 -29 55
-72 70 -130 45z"/>
<path d="M9712 8660 c-49 -38 -54 -105 -11 -146 53 -51 139 -28 158 42 24 87
-79 159 -147 104z"/>
<path d="M10019 8667 c-33 -25 -51 -66 -45 -100 12 -63 74 -97 132 -72 92 38
68 173 -33 180 -21 2 -45 -2 -54 -8z"/>
<path d="M8430 8033 c-66 -19 -90 -56 -90 -143 l0 -60 -47 -1 c-27 0 -131 -1
-232 -1 -107 0 -194 -4 -207 -10 -31 -15 -49 -67 -33 -101 19 -43 45 -47 289
-47 l230 0 0 -51 c0 -61 22 -111 56 -130 39 -20 1431 -19 1469 1 39 21 55 60
55 132 l0 64 53 -2 c28 -2 55 -3 58 -3 3 -1 13 -19 23 -42 22 -49 101 -114
159 -130 61 -16 147 -6 204 26 157 86 181 306 46 425 -55 48 -112 68 -189 65
-96 -4 -180 -58 -225 -147 -20 -39 -20 -39 -72 -36 l-52 3 -5 60 c-3 33 -11
71 -19 83 -27 49 -29 49 -766 49 -379 0 -697 -2 -705 -4z m1334 -271 c1 -63
-1 -117 -4 -121 -3 -5 -287 -8 -632 -8 -561 1 -628 2 -629 16 -3 50 -4 217 -1
224 2 4 287 6 635 5 l631 -3 0 -113z m596 76 c34 -33 42 -73 25 -115 -36 -86
-164 -87 -194 -1 -18 51 -13 75 23 113 30 31 39 36 76 33 31 -1 50 -10 70 -30z"/>
<path d="M8404 7350 c-20 -8 -60 -55 -63 -72 -1 -5 -1 -35 -1 -68 l0 -59 -234
0 c-249 1 -264 -2 -285 -48 -16 -35 -14 -49 13 -80 l24 -28 239 0 238 0 6 -68
c4 -56 10 -73 32 -95 l27 -27 718 -3 c656 -3 720 -2 749 14 38 20 53 57 53
134 l0 57 55 2 c53 1 54 0 72 -37 41 -87 143 -152 239 -152 118 0 238 95 260
206 19 95 -5 180 -69 246 -80 82 -195 103 -301 55 -53 -25 -116 -89 -135 -138
-8 -23 -14 -26 -62 -25 l-54 1 -2 40 c-5 81 -13 104 -46 129 l-32 25 -710 0
c-390 0 -720 -4 -731 -9z m1349 -153 c13 -5 16 -221 3 -234 -4 -4 -288 -7
-631 -8 l-625 0 -1 25 c-4 109 0 213 9 219 11 7 1226 5 1245 -2z m594 -25 c12
-9 28 -29 36 -44 42 -83 -57 -178 -140 -135 -44 23 -56 43 -56 94 0 39 4 50
31 75 38 33 94 38 129 10z"/>
<path d="M10191 6594 c-50 -19 -111 -76 -140 -131 l-19 -38 -971 0 -971 0 -26
-26 -26 -27 0 -980 0 -980 -39 -18 c-94 -42 -159 -161 -145 -267 30 -221 294
-308 453 -149 19 19 42 50 49 68 l14 34 380 0 379 0 27 23 c37 33 37 81 0 113
-23 20 -37 24 -99 23 -40 0 -210 0 -379 0 l-307 1 -17 35 c-22 46 -88 111
-127 126 l-32 11 0 928 0 927 918 1 918 0 19 -37 c104 -200 384 -196 477 7 44
97 24 216 -49 291 -70 72 -193 99 -287 65z m167 -166 c22 -18 43 -74 36 -95
-20 -63 -56 -93 -113 -93 -41 0 -89 43 -97 86 -18 98 97 165 174 102z m-2181
-2179 c26 -14 49 -64 44 -99 -13 -100 -129 -131 -191 -52 -38 48 -18 126 39
156 28 15 74 13 108 -5z"/>
<path d="M8655 5980 c-69 -6 -95 -18 -121 -57 -18 -27 -19 -57 -20 -603 -2
-546 -1 -577 17 -616 34 -72 5 -69 658 -69 544 0 589 1 614 18 65 42 62 11 62
656 -1 555 -2 587 -19 614 -40 60 -30 59 -605 61 -289 0 -553 -1 -586 -4z
m1046 -159 c4 0 7 -233 7 -516 l0 -515 -519 0 -519 0 0 518 0 517 513 -1 c281
-1 515 -2 518 -3z"/>
<path d="M8866 5601 c-65 -35 -67 -37 -64 -71 3 -31 7 -35 33 -38 l31 -3 -1
-245 -1 -245 65 3 65 3 1 308 c0 170 -2 312 -5 316 -13 17 -63 6 -124 -28z"/>
<path d="M9215 5631 c-3 -2 -5 -18 -5 -36 l0 -31 128 0 127 1 3 -33 c2 -21
-11 -62 -38 -122 -70 -157 -90 -228 -90 -324 l0 -86 64 0 64 0 5 98 c5 122 10
139 92 322 29 64 33 85 32 145 l-2 70 -188 0 c-103 1 -190 -1 -192 -4z"/>
<path d="M10227 5877 c-36 -29 -47 -86 -23 -123 19 -28 72 -54 95 -47 78 24
105 82 70 149 -24 47 -97 57 -142 21z"/>
<path d="M2102 11229 c-84 -56 -201 -167 -260 -247 -190 -257 -192 -500 -4
-673 86 -79 155 -112 247 -117 127 -7 207 32 450 219 138 106 201 139 273 140
104 3 219 -90 243 -196 28 -127 -47 -290 -208 -447 -73 -72 -149 -132 -207
-163 -41 -22 -44 -30 -17 -45 11 -5 25 -16 33 -23 26 -25 76 -57 90 -57 26 0
152 96 232 176 122 122 204 253 246 390 37 123 31 223 -20 330 -33 68 -136
166 -218 206 -61 30 -74 33 -157 32 -82 -1 -97 -4 -163 -37 -59 -28 -201 -123
-222 -147 -14 -16 -133 -102 -178 -129 -116 -68 -220 -56 -309 36 -95 98 -92
233 11 383 49 73 175 192 264 250 45 30 82 57 81 60 -1 10 -123 100 -135 100
-6 0 -39 -18 -72 -41z"/>
<path d="M11910 10209 c-47 -10 -98 -24 -115 -31 -302 -119 -488 -291 -565
-525 -33 -101 -31 -252 4 -407 13 -57 75 -197 122 -277 51 -85 146 -207 169
-215 7 -3 45 11 85 31 81 41 79 29 12 104 -52 57 -117 158 -158 247 -171 364
-55 656 331 834 111 52 200 72 309 69 105 -2 165 -17 256 -65 144 -76 255
-223 323 -426 14 -42 29 -96 32 -120 4 -24 8 -44 9 -45 1 -2 36 15 77 36 63
33 74 42 71 62 -17 147 -111 350 -222 482 -93 112 -240 206 -380 243 -94 25
-254 26 -360 3z"/>
<path d="M1030 9543 c-23 -54 -28 -78 -21 -91 5 -9 275 -282 599 -606 l589
-588 37 87 c20 48 36 92 36 98 0 7 -81 91 -179 187 l-179 176 19 39 c10 22 18
43 19 47 0 4 11 31 24 60 13 29 42 98 65 153 23 55 46 109 51 120 5 11 25 56
43 100 l34 80 255 -3 255 -2 11 22 c23 46 70 163 67 167 -4 3 -67 5 -910 16
-259 3 -541 7 -627 9 l-158 2 -30 -73z m385 -108 c50 -3 196 -8 325 -11 129
-4 236 -7 237 -8 6 -5 -183 -455 -195 -468 -4 -4 -86 70 -182 164 -96 94 -212
204 -257 246 -45 41 -80 79 -77 83 2 5 17 6 32 4 15 -3 68 -7 117 -10z"/>
<path d="M12985 8930 c-44 -9 -159 -34 -255 -53 -96 -20 -240 -50 -320 -67
-80 -18 -156 -34 -169 -36 -14 -3 -164 -34 -335 -70 -171 -36 -320 -66 -331
-68 -15 -2 -20 -10 -19 -32 2 -40 24 -148 32 -155 7 -6 39 0 257 46 44 10 91
19 105 21 14 3 95 20 180 38 85 19 157 32 159 31 1 -2 20 -86 41 -187 22 -101
48 -227 60 -280 12 -54 23 -108 25 -120 3 -13 13 -66 24 -118 11 -52 19 -95
17 -97 -3 -3 -221 -50 -513 -109 -142 -29 -183 -41 -183 -53 0 -38 34 -171 44
-171 9 0 407 82 651 134 226 48 447 94 485 101 14 2 100 20 190 40 91 19 173
35 182 35 11 0 18 8 18 19 0 23 -28 160 -35 171 -2 4 -31 1 -63 -6 -125 -29
-580 -124 -593 -124 -8 0 -24 49 -33 105 -2 17 -23 118 -46 225 -23 107 -44
209 -47 225 -3 17 -15 77 -29 135 -13 58 -20 108 -16 111 6 6 133 35 232 53
14 2 116 24 228 47 181 38 202 44 196 61 -3 10 -7 30 -10 45 -12 73 -27 123
-37 122 -7 -1 -48 -9 -92 -19z"/>
<path d="M674 8513 c-3 -26 -8 -57 -10 -68 -6 -33 -13 -78 -19 -120 -3 -22
-12 -78 -20 -125 -17 -103 -25 -155 -30 -195 -5 -31 -15 -98 -21 -127 -14 -77
-34 -241 -30 -245 2 -3 22 -7 43 -10 21 -2 61 -8 88 -13 28 -5 68 -12 90 -15
22 -3 51 -7 65 -10 14 -2 43 -7 65 -10 22 -3 51 -7 65 -10 28 -5 88 -14 139
-21 19 -2 46 -6 60 -9 64 -10 280 -45 316 -50 22 -4 51 -8 65 -10 327 -52 546
-83 551 -77 4 4 10 27 13 52 3 25 9 64 12 87 6 46 8 45 -96 58 -25 4 -56 8
-70 10 -14 2 -56 9 -95 15 -38 6 -82 13 -97 15 -39 7 -68 11 -193 30 -60 9
-120 18 -132 21 -24 5 -24 7 -4 119 6 33 13 76 15 95 3 19 19 126 36 238 18
112 30 205 28 207 -1 1 -25 6 -53 9 -27 4 -64 9 -82 12 -31 5 -32 4 -39 -43
-3 -26 -8 -57 -10 -68 -2 -11 -7 -40 -10 -65 -3 -25 -7 -52 -9 -60 -3 -8 -7
-33 -10 -55 -4 -22 -8 -51 -11 -65 -2 -14 -7 -43 -10 -65 -2 -22 -6 -49 -8
-60 -2 -11 -7 -45 -11 -75 -11 -94 -11 -93 -63 -86 -26 3 -57 8 -68 10 -23 5
-61 11 -159 26 -33 5 -78 12 -100 15 -59 10 -77 12 -103 14 -23 1 -24 3 -17
54 4 28 9 61 11 72 2 10 6 37 9 60 3 22 12 78 20 125 8 47 16 102 19 123 11
70 17 112 32 202 16 103 17 116 7 113 -8 -2 -86 8 -135 18 -25 5 -27 3 -34
-43z"/>
<path d="M1225 6783 c-154 -32 -297 -139 -359 -268 -97 -204 -62 -418 94 -576
81 -82 167 -125 282 -141 161 -23 303 25 418 142 94 95 137 188 147 321 16
218 -121 424 -334 501 -55 20 -195 32 -248 21z m212 -279 c55 -32 98 -90 113
-155 44 -183 -116 -343 -300 -299 -140 34 -222 190 -172 327 23 61 92 129 150
148 65 21 153 12 209 -21z"/>
<path d="M12440 6775 c-181 -50 -316 -188 -363 -368 -20 -75 -14 -204 11 -278
101 -288 424 -418 702 -281 66 32 166 129 203 196 126 228 62 510 -150 657
-107 74 -284 107 -403 74z m243 -269 c146 -85 168 -282 45 -399 -92 -89 -248
-85 -341 8 -53 53 -76 112 -72 187 3 69 26 119 77 168 75 73 202 89 291 36z"/>
<path d="M11552 5492 l-40 -87 27 -14 c14 -8 91 -45 171 -82 177 -81 262 -121
405 -189 61 -28 151 -70 200 -92 50 -21 108 -48 130 -58 22 -11 85 -37 140
-59 55 -22 101 -45 103 -51 2 -6 -2 -10 -9 -9 -8 2 -34 -1 -59 -5 -25 -4 -57
-9 -72 -12 -16 -2 -40 -6 -55 -8 -16 -3 -53 -8 -83 -11 -30 -4 -57 -8 -60 -10
-3 -2 -27 -6 -55 -9 -27 -4 -86 -13 -130 -21 -44 -8 -96 -17 -115 -20 -19 -3
-60 -10 -90 -16 -30 -6 -64 -12 -75 -14 -11 -2 -36 -6 -55 -9 -19 -3 -82 -14
-140 -25 -58 -11 -175 -32 -260 -47 -327 -56 -296 -44 -331 -122 -17 -37 -35
-75 -40 -85 -11 -19 -12 -18 343 -183 75 -35 176 -82 225 -105 48 -23 115 -54
148 -69 33 -15 94 -43 135 -63 567 -266 570 -267 579 -244 5 12 23 51 40 86
17 36 30 65 28 67 -3 3 -271 129 -412 194 -33 15 -94 43 -135 63 -158 74 -252
117 -255 117 -2 0 -41 17 -87 38 -46 22 -131 58 -190 82 -59 24 -106 45 -104
47 4 4 87 18 171 29 28 3 59 8 70 10 11 2 40 7 65 10 25 3 54 8 65 10 26 6 73
13 110 19 27 3 171 28 235 40 14 3 62 12 107 20 45 8 92 17 105 19 13 3 37 8
53 10 31 5 134 23 170 30 11 2 103 18 205 35 102 18 191 36 199 40 8 4 31 44
52 89 l38 82 -28 14 c-15 8 -90 44 -167 79 -76 36 -213 100 -304 142 -91 42
-192 90 -225 105 -140 65 -517 241 -606 283 l-97 45 -40 -86z"/>
<path d="M1650 5054 c-377 -190 -691 -352 -698 -358 -11 -11 -6 -28 29 -94
l43 -81 316 160 c173 87 319 159 323 159 3 0 67 -120 141 -267 74 -148 155
-308 180 -357 25 -49 46 -94 46 -100 0 -6 -142 -82 -315 -169 -173 -87 -315
-161 -315 -165 0 -3 18 -43 41 -87 l40 -81 172 86 c95 47 411 207 703 355
l532 268 -42 83 c-22 46 -44 84 -48 84 -5 0 -141 -68 -305 -150 -163 -83 -300
-147 -304 -143 -4 5 -88 170 -187 368 l-181 360 305 152 304 153 -42 85 c-23
47 -45 85 -48 85 -3 0 -313 -156 -690 -346z"/>
<path d="M10820 4004 c-122 -36 -219 -94 -314 -190 -92 -93 -155 -191 -193
-302 -36 -108 -38 -281 -4 -392 97 -316 409 -603 722 -666 62 -12 203 -11 264
3 265 60 491 279 561 545 17 64 22 212 11 281 -44 254 -266 526 -542 665 -162
81 -348 101 -505 56z m258 -169 c117 -17 280 -113 398 -231 89 -90 142 -166
177 -254 36 -92 45 -137 42 -222 -10 -267 -250 -500 -515 -499 -173 1 -341 81
-501 241 -150 150 -223 314 -214 480 6 122 57 236 147 330 126 133 279 184
466 155z"/>
<path d="M2795 3619 c-773 -292 -955 -360 -1000 -376 -22 -8 -43 -18 -48 -22
-4 -4 23 -40 61 -80 l68 -73 50 20 c27 11 134 53 238 93 l189 72 35 -39 c48
-54 204 -223 278 -303 34 -36 76 -81 93 -100 17 -18 31 -39 31 -46 0 -7 -40
-95 -88 -196 -49 -101 -97 -201 -107 -222 -20 -43 -30 -25 78 -141 l46 -50 51
110 c29 60 78 165 110 234 32 69 85 183 119 253 33 70 61 130 61 131 0 2 34
74 75 161 41 86 75 158 75 160 0 1 24 54 54 117 72 152 123 262 151 324 l23
51 -56 61 -57 60 -530 -199z m243 -357 l-162 -322 -35 37 c-19 21 -80 88 -136
148 -196 210 -186 192 -125 215 19 7 49 19 65 26 17 7 73 29 125 49 112 44
302 121 346 141 43 19 79 32 81 30 2 -2 -70 -147 -159 -324z"/>
<path d="M9820 3124 c-41 -24 -76 -48 -78 -52 -1 -4 39 -77 89 -162 50 -85
102 -173 114 -195 13 -22 48 -82 78 -134 l56 -94 -42 -27 c-23 -14 -49 -29
-57 -33 -8 -3 -148 -85 -310 -181 -276 -163 -296 -174 -310 -157 -8 10 -87
140 -174 289 -88 150 -163 272 -167 272 -8 0 -139 -76 -151 -88 -5 -5 89 -174
215 -388 122 -208 301 -513 397 -676 l173 -297 31 16 c17 9 54 31 83 49 l52
33 -96 163 c-53 90 -105 179 -116 198 -10 19 -48 84 -84 143 -44 75 -61 112
-54 120 5 7 27 21 48 32 21 11 40 22 43 25 3 3 14 10 25 16 11 6 145 84 299
174 266 156 279 163 293 144 20 -26 331 -558 339 -578 3 -9 11 -16 16 -16 17
0 157 84 158 94 0 6 -40 78 -88 160 -49 83 -223 381 -387 661 -164 281 -303
515 -309 522 -8 8 -30 0 -86 -33z"/>
<path d="M3965 2964 c-240 -57 -448 -239 -582 -509 -180 -362 -82 -710 271
-959 102 -72 232 -136 328 -162 l48 -12 30 44 c16 25 30 49 30 53 0 5 7 14 15
21 24 20 19 25 -42 43 -140 43 -290 129 -393 224 -122 113 -181 241 -181 391
0 95 13 155 57 253 44 100 111 198 189 275 262 257 627 229 926 -71 41 -41 76
-75 79 -75 3 0 25 32 49 71 l44 71 -85 82 c-134 131 -308 228 -467 262 -84 17
-238 17 -316 -2z"/>
<path d="M4932 2461 c-22 -69 -66 -207 -97 -306 -31 -99 -63 -198 -71 -220 -7
-22 -52 -161 -98 -310 -46 -148 -103 -328 -125 -398 -23 -70 -41 -131 -41
-135 0 -7 155 -62 173 -62 5 0 64 178 164 495 14 44 34 106 44 138 10 31 19
64 19 73 0 35 25 2 81 -106 150 -288 263 -508 339 -655 45 -88 87 -165 94
-172 12 -12 167 -65 174 -59 3 4 -194 396 -408 811 l-88 171 311 174 c170 96
335 189 366 206 31 17 90 50 131 73 41 23 85 47 98 53 12 6 22 14 22 18 0 3
-39 18 -87 33 l-86 27 -321 -182 c-177 -99 -334 -189 -351 -198 -16 -9 -79
-45 -139 -79 -60 -34 -110 -60 -111 -59 -2 2 10 44 26 93 163 517 200 638 195
643 -3 3 -44 17 -90 32 l-84 27 -40 -126z"/>
<path d="M8315 2389 c-121 -26 -285 -62 -365 -79 -80 -17 -152 -33 -160 -35
-44 -10 -359 -78 -380 -81 -54 -10 -53 -6 -35 -94 3 -14 8 -40 11 -58 5 -24
11 -31 23 -28 47 13 58 16 86 20 17 3 112 24 212 46 100 22 186 40 191 40 5 0
12 -10 15 -22 3 -13 15 -68 27 -123 12 -55 23 -109 26 -120 2 -11 6 -31 9 -45
2 -14 23 -108 46 -210 22 -102 42 -194 45 -205 2 -11 6 -29 8 -40 55 -257 67
-315 72 -340 2 -16 9 -43 14 -60 5 -16 11 -41 14 -55 2 -14 9 -52 16 -86 l12
-61 92 20 c50 11 92 21 94 22 1 1 -14 78 -34 171 -19 93 -37 178 -40 189 -4
20 -53 246 -80 365 -8 36 -30 139 -49 230 -20 91 -47 215 -60 277 -14 62 -25
118 -25 125 0 9 80 30 256 68 l255 55 -7 25 c-9 38 -10 41 -19 93 -6 39 -11
47 -29 46 -11 -1 -120 -23 -241 -50z"/>
<path d="M6630 2158 c-12 -29 -35 -79 -50 -110 -16 -32 -26 -58 -23 -58 3 0 1
-6 -5 -12 -5 -7 -67 -139 -137 -293 -70 -154 -138 -305 -152 -335 -14 -30 -47
-104 -75 -165 -27 -60 -65 -143 -84 -183 -19 -41 -34 -75 -34 -77 0 -2 -23
-52 -51 -112 -80 -169 -80 -153 -1 -154 37 0 82 -2 100 -3 18 -1 36 2 41 8 4
6 52 111 106 234 l98 222 116 -4 c64 -3 188 -8 276 -12 88 -3 183 -7 212 -7
59 -1 49 15 108 -157 57 -163 114 -323 117 -325 2 -2 47 -5 101 -7 74 -4 97
-2 97 8 0 7 -36 111 -79 231 -44 120 -139 382 -211 583 -72 201 -134 372 -137
380 -3 8 -7 20 -9 25 -1 6 -16 46 -32 90 -17 44 -45 121 -62 170 -18 50 -36
95 -41 100 -4 6 -44 12 -87 13 l-79 3 -23 -53z m222 -571 l105 -317 -126 5
c-211 8 -386 17 -388 19 -1 1 16 42 38 91 22 50 49 110 59 135 10 25 29 70 43
100 13 30 51 119 83 198 56 137 59 142 70 115 7 -15 59 -171 116 -346z"/>
</g>
</svg>
